<?xml version="1.0" encoding="UTF-8"?>
<!-- Generator: Adobe Illustrator 21.1.0, SVG Export Plug-In . SVG Version: 6.00 Build 0)  -->
<svg enable-background="new 0 0 520.9 687.2" version="1.1" viewBox="0 0 520.9 687.2" xml:space="preserve" xmlns="http://www.w3.org/2000/svg" xmlns:cc="http://creativecommons.org/ns#" xmlns:dc="http://purl.org/dc/elements/1.1/" xmlns:rdf="http://www.w3.org/1999/02/22-rdf-syntax-ns#"><metadata><rdf:RDF><cc:Work rdf:about=""><dc:format>image/svg+xml</dc:format><dc:type rdf:resource="http://purl.org/dc/dcmitype/StillImage"/><dc:title/></cc:Work></rdf:RDF></metadata><g fill="#111"><rect x=".4" y="188.8" width="520.2" height="148.1"/><rect x=".4" y="350.4" width="520.1" height="148.1"/><rect x=".5" y="512" width="520.1" height="174.9"/><rect x=".4" y=".4" width="520.1" height="174.9"/></g><g fill="none" stroke="#999" stroke-miterlimit="10" stroke-width=".25"><line x1="37.8" x2="37.8" y1="13.7" y2=".5"/><line x1="100.5" x2="100.5" y1="13.7" y2=".5"/><line x1="316.9" x2="316.9" y1="13.7" y2=".5"/><line x1=".4" x2="37.8" y1="13.9" y2="13.9"/><line x1="37.8" x2="100.5" y1="13.9" y2="13.9"/><line x1="37.8" x2="37.8" y1="27.2" y2="14"/><line x1="100.5" x2="316.9" y1="13.9" y2="13.9"/><line x1="100.5" x2="100.5" y1="27.2" y2="14"/><line x1="316.9" x2="520.6" y1="13.9" y2="13.9"/><line x1="316.9" x2="316.9" y1="27.2" y2="14"/><line x1=".4" x2="37.8" y1="27.3" y2="27.3"/><line x1="37.8" x2="100.5" y1="27.3" y2="27.3"/><line x1="37.8" x2="37.8" y1="40.7" y2="27.4"/><line x1="100.5" x2="316.9" y1="27.3" y2="27.3"/><line x1="100.5" x2="100.5" y1="40.7" y2="27.4"/><line x1="316.9" x2="520.6" y1="27.3" y2="27.3"/><line x1="316.9" x2="316.9" y1="40.7" y2="27.4"/><line x1=".4" x2="37.8" y1="40.8" y2="40.8"/><line x1="37.8" x2="100.5" y1="40.8" y2="40.8"/><line x1="37.8" x2="37.8" y1="54.1" y2="40.9"/><line x1="100.5" x2="316.9" y1="40.8" y2="40.8"/><line x1="100.5" x2="100.5" y1="54.1" y2="40.9"/><line x1="316.9" x2="520.6" y1="40.8" y2="40.8"/><line x1="316.9" x2="316.9" y1="54.1" y2="40.9"/><line x1=".4" x2="37.8" y1="54.2" y2="54.2"/><line x1="37.8" x2="100.5" y1="54.2" y2="54.2"/><line x1="37.8" x2="37.8" y1="67.6" y2="54.4"/><line x1="100.5" x2="316.9" y1="54.2" y2="54.2"/><line x1="100.5" x2="100.5" y1="67.6" y2="54.4"/><line x1="316.9" x2="520.6" y1="54.2" y2="54.2"/><line x1="316.9" x2="316.9" y1="67.6" y2="54.4"/><line x1=".4" x2="37.8" y1="67.7" y2="67.7"/><line x1="37.8" x2="100.5" y1="67.7" y2="67.7"/><line x1="37.8" x2="37.8" y1="81" y2="67.8"/><line x1="100.5" x2="316.9" y1="67.7" y2="67.7"/><line x1="100.5" x2="100.5" y1="81" y2="67.8"/><line x1="316.9" x2="520.6" y1="67.7" y2="67.7"/><line x1="316.9" x2="316.9" y1="81" y2="67.8"/><line x1=".4" x2="37.8" y1="81.2" y2="81.2"/><line x1="37.8" x2="100.5" y1="81.2" y2="81.2"/><line x1="37.8" x2="37.8" y1="94.5" y2="81.3"/><line x1="100.5" x2="316.9" y1="81.2" y2="81.2"/><line x1="100.5" x2="100.5" y1="94.5" y2="81.3"/><line x1="316.9" x2="520.6" y1="81.2" y2="81.2"/><line x1="316.9" x2="316.9" y1="94.5" y2="81.3"/><line x1=".4" x2="37.8" y1="94.6" y2="94.6"/><line x1="37.8" x2="100.5" y1="94.6" y2="94.6"/><line x1="37.8" x2="37.8" y1="108" y2="94.7"/><line x1="100.5" x2="316.9" y1="94.6" y2="94.6"/><line x1="100.5" x2="100.5" y1="108" y2="94.7"/><line x1="316.9" x2="520.6" y1="94.6" y2="94.6"/><line x1="316.9" x2="316.9" y1="108" y2="94.7"/><line x1=".4" x2="37.8" y1="108.1" y2="108.1"/><line x1="37.8" x2="100.5" y1="108.1" y2="108.1"/><line x1="37.8" x2="37.8" y1="121.4" y2="108.2"/><line x1="100.5" x2="316.9" y1="108.1" y2="108.1"/><line x1="100.5" x2="100.5" y1="121.4" y2="108.2"/><line x1="316.9" x2="520.6" y1="108.1" y2="108.1"/><line x1="316.9" x2="316.9" y1="121.4" y2="108.2"/><line x1=".4" x2="37.8" y1="121.5" y2="121.5"/><line x1="37.8" x2="100.5" y1="121.5" y2="121.5"/><line x1="37.8" x2="37.8" y1="134.9" y2="121.7"/><line x1="100.5" x2="316.9" y1="121.5" y2="121.5"/><line x1="100.5" x2="100.5" y1="134.9" y2="121.7"/><line x1="316.9" x2="520.6" y1="121.5" y2="121.5"/><line x1="316.9" x2="316.9" y1="134.9" y2="121.7"/><line x1=".4" x2="37.8" y1="135" y2="135"/><line x1="37.8" x2="100.5" y1="135" y2="135"/><line x1="37.8" x2="37.8" y1="148.3" y2="135.1"/><line x1="100.5" x2="316.9" y1="135" y2="135"/><line x1="100.5" x2="100.5" y1="148.3" y2="135.1"/><line x1="316.9" x2="520.6" y1="135" y2="135"/><line x1="316.9" x2="316.9" y1="148.3" y2="135.1"/><line x1=".4" x2="37.8" y1="148.5" y2="148.5"/><line x1="37.8" x2="100.5" y1="148.5" y2="148.5"/><line x1="37.8" x2="37.8" y1="161.8" y2="148.6"/><line x1="100.5" x2="316.9" y1="148.5" y2="148.5"/><line x1="100.5" x2="100.5" y1="161.8" y2="148.6"/><line x1="316.9" x2="520.6" y1="148.5" y2="148.5"/><line x1="316.9" x2="316.9" y1="161.8" y2="148.6"/><line x1=".4" x2="37.8" y1="161.9" y2="161.9"/><line x1="37.8" x2="100.5" y1="161.9" y2="161.9"/><line x1="37.8" x2="37.8" y1="175.3" y2="162.1"/><line x1="100.5" x2="316.9" y1="161.9" y2="161.9"/><line x1="100.5" x2="100.5" y1="175.3" y2="162.1"/><line x1="316.9" x2="520.6" y1="161.9" y2="161.9"/><line x1="316.9" x2="316.9" y1="175.3" y2="162.1"/><line x1=".4" x2="37.8" y1="175.4" y2="175.4"/><line x1="37.8" x2="100.5" y1="175.4" y2="175.4"/><line x1="100.5" x2="316.9" y1="175.4" y2="175.4"/><line x1="316.9" x2="520.6" y1="175.4" y2="175.4"/><line x1=".4" x2="37.8" y1="188.8" y2="188.8"/><line x1="37.8" x2="100.5" y1="188.8" y2="188.8"/><line x1="37.8" x2="37.8" y1="202.2" y2="189"/><line x1="100.5" x2="316.9" y1="188.8" y2="188.8"/><line x1="100.5" x2="100.5" y1="202.2" y2="189"/><line x1="316.9" x2="520.6" y1="188.8" y2="188.8"/><line x1="316.9" x2="316.9" y1="202.2" y2="189"/><line x1=".4" x2="37.8" y1="202.3" y2="202.3"/><line x1="37.8" x2="100.5" y1="202.3" y2="202.3"/><line x1="37.8" x2="37.8" y1="215.6" y2="202.4"/><line x1="100.5" x2="316.9" y1="202.3" y2="202.3"/><line x1="100.5" x2="100.5" y1="215.6" y2="202.4"/><line x1="316.9" x2="520.6" y1="202.3" y2="202.3"/><line x1="316.9" x2="316.9" y1="215.6" y2="202.4"/><line x1=".4" x2="37.8" y1="215.8" y2="215.8"/><line x1="37.8" x2="100.5" y1="215.8" y2="215.8"/><line x1="37.8" x2="37.8" y1="229.1" y2="215.9"/><line x1="100.5" x2="316.9" y1="215.8" y2="215.8"/><line x1="100.5" x2="100.5" y1="229.1" y2="215.9"/><line x1="316.9" x2="520.6" y1="215.8" y2="215.8"/><line x1="316.9" x2="316.9" y1="229.1" y2="215.9"/><line x1=".4" x2="37.8" y1="229.2" y2="229.2"/><line x1="37.8" x2="100.5" y1="229.2" y2="229.2"/><line x1="37.8" x2="37.8" y1="242.6" y2="229.4"/><line x1="100.5" x2="316.9" y1="229.2" y2="229.2"/><line x1="100.5" x2="100.5" y1="242.6" y2="229.4"/><line x1="316.9" x2="520.6" y1="229.2" y2="229.2"/><line x1="316.9" x2="316.9" y1="242.6" y2="229.4"/><line x1=".4" x2="37.8" y1="242.7" y2="242.7"/><line x1="37.8" x2="100.5" y1="242.7" y2="242.7"/><line x1="37.8" x2="37.8" y1="256" y2="242.8"/><line x1="100.5" x2="316.9" y1="242.7" y2="242.7"/><line x1="100.5" x2="100.5" y1="256" y2="242.8"/><line x1="316.9" x2="520.6" y1="242.7" y2="242.7"/><line x1="316.9" x2="316.9" y1="256" y2="242.8"/><line x1=".4" x2="37.8" y1="256.2" y2="256.2"/><line x1="37.8" x2="100.5" y1="256.2" y2="256.2"/><line x1="37.8" x2="37.8" y1="269.5" y2="256.3"/><line x1="100.5" x2="316.9" y1="256.2" y2="256.2"/><line x1="100.5" x2="100.5" y1="269.5" y2="256.3"/><line x1="316.9" x2="520.6" y1="256.2" y2="256.2"/><line x1="316.9" x2="316.9" y1="269.5" y2="256.3"/><line x1=".4" x2="37.8" y1="269.6" y2="269.6"/><line x1="37.8" x2="100.5" y1="269.6" y2="269.6"/><line x1="37.8" x2="37.8" y1="282.9" y2="269.7"/><line x1="100.5" x2="316.9" y1="269.6" y2="269.6"/><line x1="100.5" x2="100.5" y1="282.9" y2="269.7"/><line x1="316.9" x2="520.6" y1="269.6" y2="269.6"/><line x1="316.9" x2="316.9" y1="282.9" y2="269.7"/><line x1=".4" x2="37.8" y1="283.1" y2="283.1"/><line x1="37.8" x2="100.5" y1="283.1" y2="283.1"/><line x1="37.8" x2="37.8" y1="296.4" y2="283.2"/><line x1="100.5" x2="316.9" y1="283.1" y2="283.1"/><line x1="100.5" x2="100.5" y1="296.4" y2="283.2"/><line x1="316.9" x2="520.6" y1="283.1" y2="283.1"/><line x1="316.9" x2="316.9" y1="296.4" y2="283.2"/><line x1=".4" x2="37.8" y1="296.5" y2="296.5"/><line x1="37.8" x2="100.5" y1="296.5" y2="296.5"/><line x1="37.8" x2="37.8" y1="309.9" y2="296.7"/><line x1="100.5" x2="316.9" y1="296.5" y2="296.5"/><line x1="100.5" x2="100.5" y1="309.9" y2="296.7"/><line x1="316.9" x2="520.6" y1="296.5" y2="296.5"/><line x1="316.9" x2="316.9" y1="309.9" y2="296.7"/><line x1=".4" x2="37.8" y1="310" y2="310"/><line x1="37.8" x2="100.5" y1="310" y2="310"/><line x1="37.8" x2="37.8" y1="323.3" y2="310.1"/><line x1="100.5" x2="316.9" y1="310" y2="310"/><line x1="100.5" x2="100.5" y1="323.3" y2="310.1"/><line x1="316.9" x2="520.6" y1="310" y2="310"/><line x1="316.9" x2="316.9" y1="323.3" y2="310.1"/><line x1=".4" x2="37.8" y1="323.5" y2="323.5"/><line x1="37.8" x2="100.5" y1="323.5" y2="323.5"/><line x1="37.8" x2="37.8" y1="336.8" y2="323.6"/><line x1="100.5" x2="316.9" y1="323.5" y2="323.5"/><line x1="100.5" x2="100.5" y1="336.8" y2="323.6"/><line x1="316.9" x2="520.6" y1="323.5" y2="323.5"/><line x1="316.9" x2="316.9" y1="336.8" y2="323.6"/><line x1=".4" x2="37.8" y1="336.9" y2="336.9"/><line x1="37.8" x2="100.5" y1="336.9" y2="336.9"/><line x1="100.5" x2="316.9" y1="336.9" y2="336.9"/><line x1="316.9" x2="520.6" y1="336.9" y2="336.9"/><line x1=".4" x2="37.8" y1="350.4" y2="350.4"/><line x1="37.8" x2="100.5" y1="350.4" y2="350.4"/><line x1="37.8" x2="37.8" y1="363.7" y2="350.5"/><line x1="100.5" x2="316.9" y1="350.4" y2="350.4"/><line x1="100.5" x2="100.5" y1="363.7" y2="350.5"/><line x1="316.9" x2="520.6" y1="350.4" y2="350.4"/><line x1="316.9" x2="316.9" y1="363.7" y2="350.5"/><line x1=".4" x2="37.8" y1="363.8" y2="363.8"/><line x1="37.8" x2="100.5" y1="363.8" y2="363.8"/><line x1="37.8" x2="37.8" y1="377.2" y2="364"/><line x1="100.5" x2="316.9" y1="363.8" y2="363.8"/><line x1="100.5" x2="100.5" y1="377.2" y2="364"/><line x1="316.9" x2="520.6" y1="363.8" y2="363.8"/><line x1="316.9" x2="316.9" y1="377.2" y2="364"/><line x1=".4" x2="37.8" y1="377.3" y2="377.3"/><line x1="37.8" x2="100.5" y1="377.3" y2="377.3"/><line x1="37.8" x2="37.8" y1="390.6" y2="377.4"/><line x1="100.5" x2="316.9" y1="377.3" y2="377.3"/><line x1="100.5" x2="100.5" y1="390.6" y2="377.4"/><line x1="316.9" x2="520.6" y1="377.3" y2="377.3"/><line x1="316.9" x2="316.9" y1="390.6" y2="377.4"/><line x1=".4" x2="37.8" y1="390.8" y2="390.8"/><line x1="37.8" x2="100.5" y1="390.8" y2="390.8"/><line x1="37.8" x2="37.8" y1="404.1" y2="390.9"/><line x1="100.5" x2="316.9" y1="390.8" y2="390.8"/><line x1="100.5" x2="100.5" y1="404.1" y2="390.9"/><line x1="316.9" x2="520.6" y1="390.8" y2="390.8"/><line x1="316.9" x2="316.9" y1="404.1" y2="390.9"/><line x1=".4" x2="37.8" y1="404.2" y2="404.2"/><line x1="37.8" x2="100.5" y1="404.2" y2="404.2"/><line x1="37.8" x2="37.8" y1="417.6" y2="404.3"/><line x1="100.5" x2="316.9" y1="404.2" y2="404.2"/><line x1="100.5" x2="100.5" y1="417.6" y2="404.3"/><line x1="316.9" x2="520.6" y1="404.2" y2="404.2"/><line x1="316.9" x2="316.9" y1="417.6" y2="404.3"/><line x1=".4" x2="37.8" y1="417.7" y2="417.7"/><line x1="37.8" x2="100.5" y1="417.7" y2="417.7"/><line x1="37.8" x2="37.8" y1="431" y2="417.8"/><line x1="100.5" x2="316.9" y1="417.7" y2="417.7"/><line x1="100.5" x2="100.5" y1="431" y2="417.8"/><line x1="316.9" x2="520.6" y1="417.7" y2="417.7"/><line x1="316.9" x2="316.9" y1="431" y2="417.8"/><line x1=".4" x2="37.8" y1="431.1" y2="431.1"/><line x1="37.8" x2="100.5" y1="431.1" y2="431.1"/><line x1="37.8" x2="37.8" y1="444.5" y2="431.3"/><line x1="100.5" x2="316.9" y1="431.1" y2="431.1"/><line x1="100.5" x2="100.5" y1="444.5" y2="431.3"/><line x1="316.9" x2="520.6" y1="431.1" y2="431.1"/><line x1="316.9" x2="316.9" y1="444.5" y2="431.3"/><line x1=".4" x2="37.8" y1="444.6" y2="444.6"/><line x1="37.8" x2="100.5" y1="444.6" y2="444.6"/><line x1="37.8" x2="37.8" y1="457.9" y2="444.7"/><line x1="100.5" x2="316.9" y1="444.6" y2="444.6"/><line x1="100.5" x2="100.5" y1="457.9" y2="444.7"/><line x1="316.9" x2="520.6" y1="444.6" y2="444.6"/><line x1="316.9" x2="316.9" y1="457.9" y2="444.7"/><line x1=".4" x2="37.8" y1="458.1" y2="458.1"/><line x1="37.8" x2="100.5" y1="458.1" y2="458.1"/><line x1="37.8" x2="37.8" y1="471.4" y2="458.2"/><line x1="100.5" x2="316.9" y1="458.1" y2="458.1"/><line x1="100.5" x2="100.5" y1="471.4" y2="458.2"/><line x1="316.9" x2="520.6" y1="458.1" y2="458.1"/><line x1="316.9" x2="316.9" y1="471.4" y2="458.2"/><line x1=".4" x2="37.8" y1="471.5" y2="471.5"/><line x1="37.8" x2="100.5" y1="471.5" y2="471.5"/><line x1="37.8" x2="37.8" y1="484.9" y2="471.7"/><line x1="100.5" x2="316.9" y1="471.5" y2="471.5"/><line x1="100.5" x2="100.5" y1="484.9" y2="471.7"/><line x1="316.9" x2="520.6" y1="471.5" y2="471.5"/><line x1="316.9" x2="316.9" y1="484.9" y2="471.7"/><line x1=".4" x2="37.8" y1="485" y2="485"/><line x1="37.8" x2="100.5" y1="485" y2="485"/><line x1="37.8" x2="37.8" y1="498.3" y2="485.1"/><line x1="100.5" x2="316.9" y1="485" y2="485"/><line x1="100.5" x2="100.5" y1="498.3" y2="485.1"/><line x1="316.9" x2="520.6" y1="485" y2="485"/><line x1="316.9" x2="316.9" y1="498.3" y2="485.1"/><line x1=".4" x2="37.8" y1="498.4" y2="498.4"/><line x1="37.8" x2="100.5" y1="498.4" y2="498.4"/><line x1="100.5" x2="316.9" y1="498.4" y2="498.4"/><line x1="316.9" x2="520.6" y1="498.4" y2="498.4"/><line x1=".4" x2="37.8" y1="511.9" y2="511.9"/><line x1="37.8" x2="100.5" y1="511.9" y2="511.9"/><line x1="37.8" x2="37.8" y1="525.2" y2="512"/><line x1="100.5" x2="316.9" y1="511.9" y2="511.9"/><line x1="100.5" x2="100.5" y1="525.2" y2="512"/><line x1="316.9" x2="520.6" y1="511.9" y2="511.9"/><line x1="316.9" x2="316.9" y1="525.2" y2="512"/><line x1=".4" x2="37.8" y1="525.4" y2="525.4"/><line x1="37.8" x2="100.5" y1="525.4" y2="525.4"/><line x1="37.8" x2="37.8" y1="538.7" y2="525.5"/><line x1="100.5" x2="316.9" y1="525.4" y2="525.4"/><line x1="100.5" x2="100.5" y1="538.7" y2="525.5"/><line x1="316.9" x2="520.6" y1="525.4" y2="525.4"/><line x1="316.9" x2="316.9" y1="538.7" y2="525.5"/><line x1=".4" x2="37.8" y1="538.8" y2="538.8"/><line x1="37.8" x2="100.5" y1="538.8" y2="538.8"/><line x1="37.8" x2="37.8" y1="552.2" y2="539"/><line x1="100.5" x2="316.9" y1="538.8" y2="538.8"/><line x1="100.5" x2="100.5" y1="552.2" y2="539"/><line x1="316.9" x2="520.6" y1="538.8" y2="538.8"/><line x1="316.9" x2="316.9" y1="552.2" y2="539"/><line x1=".4" x2="37.8" y1="552.3" y2="552.3"/><line x1="37.8" x2="100.5" y1="552.3" y2="552.3"/><line x1="37.8" x2="37.8" y1="565.6" y2="552.4"/><line x1="100.5" x2="316.9" y1="552.3" y2="552.3"/><line x1="100.5" x2="100.5" y1="565.6" y2="552.4"/><line x1="316.9" x2="520.6" y1="552.3" y2="552.3"/><line x1="316.9" x2="316.9" y1="565.6" y2="552.4"/><line x1=".4" x2="37.8" y1="565.8" y2="565.8"/><line x1="37.8" x2="100.5" y1="565.8" y2="565.8"/><line x1="37.8" x2="37.8" y1="579.1" y2="565.9"/><line x1="100.5" x2="316.9" y1="565.8" y2="565.8"/><line x1="100.5" x2="100.5" y1="579.1" y2="565.9"/><line x1="316.9" x2="520.6" y1="565.8" y2="565.8"/><line x1="316.9" x2="316.9" y1="579.1" y2="565.9"/><line x1=".4" x2="37.8" y1="579.2" y2="579.2"/><line x1="37.8" x2="100.5" y1="579.2" y2="579.2"/><line x1="37.8" x2="37.8" y1="592.5" y2="579.3"/><line x1="100.5" x2="316.9" y1="579.2" y2="579.2"/><line x1="100.5" x2="100.5" y1="592.5" y2="579.3"/><line x1="316.9" x2="520.6" y1="579.2" y2="579.2"/><line x1="316.9" x2="316.9" y1="592.5" y2="579.3"/><line x1=".4" x2="37.8" y1="592.7" y2="592.7"/><line x1="37.8" x2="100.5" y1="592.7" y2="592.7"/><line x1="37.8" x2="37.8" y1="606" y2="592.8"/><line x1="100.5" x2="316.9" y1="592.7" y2="592.7"/><line x1="100.5" x2="100.5" y1="606" y2="592.8"/><line x1="316.9" x2="520.6" y1="592.7" y2="592.7"/><line x1="316.9" x2="316.9" y1="606" y2="592.8"/><line x1=".4" x2="37.8" y1="606.1" y2="606.1"/><line x1="37.8" x2="100.5" y1="606.1" y2="606.1"/><line x1="37.8" x2="37.8" y1="619.5" y2="606.3"/><line x1="100.5" x2="316.9" y1="606.1" y2="606.1"/><line x1="100.5" x2="100.5" y1="619.5" y2="606.3"/><line x1="316.9" x2="520.6" y1="606.1" y2="606.1"/><line x1="316.9" x2="316.9" y1="619.5" y2="606.3"/><line x1=".4" x2="37.8" y1="619.6" y2="619.6"/><line x1="37.8" x2="100.5" y1="619.6" y2="619.6"/><line x1="37.8" x2="37.8" y1="632.9" y2="619.7"/><line x1="100.5" x2="316.9" y1="619.6" y2="619.6"/><line x1="100.5" x2="100.5" y1="632.9" y2="619.7"/><line x1="316.9" x2="520.6" y1="619.6" y2="619.6"/><line x1="316.9" x2="316.9" y1="632.9" y2="619.7"/><line x1=".4" x2="37.8" y1="633.1" y2="633.1"/><line x1="37.8" x2="100.5" y1="633.1" y2="633.1"/><line x1="37.8" x2="37.8" y1="646.4" y2="633.2"/><line x1="100.5" x2="316.9" y1="633.1" y2="633.1"/><line x1="100.5" x2="100.5" y1="646.4" y2="633.2"/><line x1="316.9" x2="520.6" y1="633.1" y2="633.1"/><line x1="316.9" x2="316.9" y1="646.4" y2="633.2"/><line x1=".4" x2="37.8" y1="646.5" y2="646.5"/><line x1="37.8" x2="100.5" y1="646.5" y2="646.5"/><line x1="37.8" x2="37.8" y1="659.9" y2="646.6"/><line x1="100.5" x2="316.9" y1="646.5" y2="646.5"/><line x1="100.5" x2="100.5" y1="659.9" y2="646.6"/><line x1="316.9" x2="520.6" y1="646.5" y2="646.5"/><line x1="316.9" x2="316.9" y1="659.9" y2="646.6"/><line x1=".4" x2="37.8" y1="660" y2="660"/><line x1="37.8" x2="100.5" y1="660" y2="660"/><line x1="37.8" x2="37.8" y1="673.3" y2="660.1"/><line x1="100.5" x2="316.9" y1="660" y2="660"/><line x1="100.5" x2="100.5" y1="673.3" y2="660.1"/><line x1="316.9" x2="520.6" y1="660" y2="660"/><line x1="316.9" x2="316.9" y1="673.3" y2="660.1"/><line x1=".4" x2="37.8" y1="673.4" y2="673.4"/><line x1="37.8" x2="100.5" y1="673.4" y2="673.4"/><line x1="37.8" x2="37.8" y1="686.8" y2="673.6"/><line x1="100.5" x2="316.9" y1="673.4" y2="673.4"/><line x1="100.5" x2="100.5" y1="686.8" y2="673.6"/><line x1="316.9" x2="520.6" y1="673.4" y2="673.4"/><line x1="316.9" x2="316.9" y1="686.8" y2="673.6"/><line x1=".4" x2="37.8" y1=".4" y2=".4"/><line x1=".5" x2=".5" y1="13.7" y2=".5"/><line x1="37.8" x2="100.5" y1=".4" y2=".4"/><line x1="100.5" x2="316.9" y1=".4" y2=".4"/><line x1="316.9" x2="520.6" y1=".4" y2=".4"/><line x1="520.5" x2="520.5" y1="13.7" y2=".5"/><line x1=".5" x2=".5" y1="27.2" y2="14"/><line x1="520.5" x2="520.5" y1="27.2" y2="14"/><line x1=".5" x2=".5" y1="40.7" y2="27.4"/><line x1="520.5" x2="520.5" y1="40.7" y2="27.4"/><line x1=".5" x2=".5" y1="54.1" y2="40.9"/><line x1="520.5" x2="520.5" y1="54.1" y2="40.9"/><line x1=".5" x2=".5" y1="67.6" y2="54.4"/><line x1="520.5" x2="520.5" y1="67.6" y2="54.4"/><line x1=".5" x2=".5" y1="81" y2="67.8"/><line x1="520.5" x2="520.5" y1="81" y2="67.8"/><line x1=".5" x2=".5" y1="94.5" y2="81.3"/><line x1="520.5" x2="520.5" y1="94.5" y2="81.3"/><line x1=".5" x2=".5" y1="108" y2="94.7"/><line x1="520.5" x2="520.5" y1="108" y2="94.7"/><line x1=".5" x2=".5" y1="121.4" y2="108.2"/><line x1="520.5" x2="520.5" y1="121.4" y2="108.2"/><line x1=".5" x2=".5" y1="134.9" y2="121.7"/><line x1="520.5" x2="520.5" y1="134.9" y2="121.7"/><line x1=".5" x2=".5" y1="148.3" y2="135.1"/><line x1="520.5" x2="520.5" y1="148.3" y2="135.1"/><line x1=".5" x2=".5" y1="161.8" y2="148.6"/><line x1="520.5" x2="520.5" y1="161.8" y2="148.6"/><line x1=".5" x2=".5" y1="175.3" y2="162.1"/><line x1="520.5" x2="520.5" y1="175.3" y2="162.1"/><line x1=".5" x2=".5" y1="202.2" y2="189"/><line x1="520.5" x2="520.5" y1="202.2" y2="189"/><line x1=".5" x2=".5" y1="215.6" y2="202.4"/><line x1="520.5" x2="520.5" y1="215.6" y2="202.4"/><line x1=".5" x2=".5" y1="229.1" y2="215.9"/><line x1="520.5" x2="520.5" y1="229.1" y2="215.9"/><line x1=".5" x2=".5" y1="242.6" y2="229.4"/><line x1="520.5" x2="520.5" y1="242.6" y2="229.4"/><line x1=".5" x2=".5" y1="256" y2="242.8"/><line x1="520.5" x2="520.5" y1="256" y2="242.8"/><line x1=".5" x2=".5" y1="269.5" y2="256.3"/><line x1="520.5" x2="520.5" y1="269.5" y2="256.3"/><line x1=".5" x2=".5" y1="282.9" y2="269.7"/><line x1="520.5" x2="520.5" y1="282.9" y2="269.7"/><line x1=".5" x2=".5" y1="296.4" y2="283.2"/><line x1="520.5" x2="520.5" y1="296.4" y2="283.2"/><line x1=".5" x2=".5" y1="309.9" y2="296.7"/><line x1="520.5" x2="520.5" y1="309.9" y2="296.7"/><line x1=".5" x2=".5" y1="323.3" y2="310.1"/><line x1="520.5" x2="520.5" y1="323.3" y2="310.1"/><line x1=".5" x2=".5" y1="336.8" y2="323.6"/><line x1="520.5" x2="520.5" y1="336.8" y2="323.6"/><line x1=".5" x2=".5" y1="363.7" y2="350.5"/><line x1="520.5" x2="520.5" y1="363.7" y2="350.5"/><line x1=".5" x2=".5" y1="377.2" y2="364"/><line x1="520.5" x2="520.5" y1="377.2" y2="364"/><line x1=".5" x2=".5" y1="390.6" y2="377.4"/><line x1="520.5" x2="520.5" y1="390.6" y2="377.4"/><line x1=".5" x2=".5" y1="404.1" y2="390.9"/><line x1="520.5" x2="520.5" y1="404.1" y2="390.9"/><line x1=".5" x2=".5" y1="417.6" y2="404.3"/><line x1="520.5" x2="520.5" y1="417.6" y2="404.3"/><line x1=".5" x2=".5" y1="431" y2="417.8"/><line x1="520.5" x2="520.5" y1="431" y2="417.8"/><line x1=".5" x2=".5" y1="444.5" y2="431.3"/><line x1="520.5" x2="520.5" y1="444.5" y2="431.3"/><line x1=".5" x2=".5" y1="457.9" y2="444.7"/><line x1="520.5" x2="520.5" y1="457.9" y2="444.7"/><line x1=".5" x2=".5" y1="471.4" y2="458.2"/><line x1="520.5" x2="520.5" y1="471.4" y2="458.2"/><line x1=".5" x2=".5" y1="484.9" y2="471.7"/><line x1="520.5" x2="520.5" y1="484.9" y2="471.7"/><line x1=".5" x2=".5" y1="498.3" y2="485.1"/><line x1="520.5" x2="520.5" y1="498.3" y2="485.1"/><line x1=".5" x2=".5" y1="525.2" y2="512"/><line x1="520.5" x2="520.5" y1="525.2" y2="512"/><line x1=".5" x2=".5" y1="538.7" y2="525.5"/><line x1="520.5" x2="520.5" y1="538.7" y2="525.5"/><line x1=".5" x2=".5" y1="552.2" y2="539"/><line x1="520.5" x2="520.5" y1="552.2" y2="539"/><line x1=".5" x2=".5" y1="565.6" y2="552.4"/><line x1="520.5" x2="520.5" y1="565.6" y2="552.4"/><line x1=".5" x2=".5" y1="579.1" y2="565.9"/><line x1="520.5" x2="520.5" y1="579.1" y2="565.9"/><line x1=".5" x2=".5" y1="592.5" y2="579.3"/><line x1="520.5" x2="520.5" y1="592.5" y2="579.3"/><line x1=".5" x2=".5" y1="606" y2="592.8"/><line x1="520.5" x2="520.5" y1="606" y2="592.8"/><line x1=".5" x2=".5" y1="619.5" y2="606.3"/><line x1="520.5" x2="520.5" y1="619.5" y2="606.3"/><line x1=".5" x2=".5" y1="632.9" y2="619.7"/><line x1="520.5" x2="520.5" y1="632.9" y2="619.7"/><line x1=".5" x2=".5" y1="646.4" y2="633.2"/><line x1="520.5" x2="520.5" y1="646.4" y2="633.2"/><line x1=".5" x2=".5" y1="659.9" y2="646.6"/><line x1="520.5" x2="520.5" y1="659.9" y2="646.6"/><line x1=".5" x2=".5" y1="673.3" y2="660.1"/><line x1="520.5" x2="520.5" y1="673.3" y2="660.1"/><line x1=".5" x2=".5" y1="686.8" y2="673.6"/><line x1="520.5" x2="520.5" y1="686.8" y2="673.6"/><line x1=".4" x2="37.8" y1="686.9" y2="686.9"/><line x1="37.8" x2="100.5" y1="686.9" y2="686.9"/><line x1="100.5" x2="316.9" y1="686.9" y2="686.9"/><line x1="316.9" x2="520.6" y1="686.9" y2="686.9"/></g><g fill="#CCCCCC" font-family="Arial" font-size="9.6515px"><text transform="translate(3.7419 24.104)"><tspan x="0" y="0">Vert 0</tspan></text>
<text transform="translate(40.977 24.104)">Right</text>
<text transform="translate(103.71 24.104)">if (((j+1)%size_x)!=0)</text>
<text transform="translate(320.14 24.104)">j+1</text>
<text transform="translate(3.7419 37.568)"><tspan x="0" y="0">Vert 1</tspan></text>
<text transform="translate(40.977 37.568)">Up</text>
<text transform="translate(103.71 37.568)">if (j&gt;=size_x)</text>
<text transform="translate(320.14 37.568)">j-size_x</text>
<text transform="translate(3.7419 51.032)"><tspan x="0" y="0">Vert 2</tspan></text>
<text transform="translate(40.977 51.032)">Left</text>
<text transform="translate(103.71 51.032)">if ((j%size_x)!=0)</text>
<text transform="translate(320.14 51.032)">j-1</text>
<text transform="translate(3.7419 64.496)"><tspan x="0" y="0">Vert 3</tspan></text>
<text transform="translate(40.977 64.496)">Down</text>
<text transform="translate(103.71 64.496)">if (j&lt;vertCount-size_x)</text>
<text transform="translate(320.14 64.496)">j+size_x</text>
<text transform="translate(3.7419 77.96)">Edge 0</text>
<text transform="translate(40.977 77.96)">Right</text>
<text transform="translate(103.71 77.96)">if (((j+1)%size_x)!=0)</text>
<text transform="translate(320.14 77.96)">j-(j/size_x)</text>
<text transform="translate(3.7419 91.423)">Edge 1</text>
<text transform="translate(40.977 91.423)">Up</text>
<text transform="translate(103.71 91.423)">if (j&gt;=size_x)</text>
<text transform="translate(320.14 91.423)">j+edgesplit-size_x</text>
<text transform="translate(3.7419 104.89)">Edge 2</text>
<text transform="translate(40.977 104.89)">Left</text>
<text transform="translate(103.71 104.89)">if ((j%size_x)!=0)</text>
<text transform="translate(320.14 104.89)">j-(j/size_x)-1</text>
<text transform="translate(3.7419 118.35)">Edge 3</text>
<text transform="translate(40.977 118.35)">Down</text>
<text transform="translate(103.71 118.35)">if (j&lt;vertCount-size_x)</text>
<text transform="translate(320.14 118.35)">j+edgesplit</text>
<text transform="translate(3.7419 131.82)">Cell 0</text>
<text transform="translate(40.977 131.82)">Up-Right</text>
<text transform="translate(103.71 131.82)">if ((((j+1)%size_x)!=0) &amp;&amp; (j&gt;=size_x))</text>
<text transform="translate(320.14 131.82)">j-size_x-(j/size_x)+1</text>
<text transform="translate(3.7419 145.28)">Cell 1</text>
<text transform="translate(40.977 145.28)">Up-Left</text>
<text transform="translate(103.71 145.28)">if (((j%size_x)!=0) &amp;&amp; (j&gt;=size_x))</text>
<text transform="translate(320.14 145.28)">j-size_x-(j/size_x)</text>
<text transform="translate(3.7419 158.74)">Cell 2</text>
<text transform="translate(40.977 158.74)">Down-Left</text>
<text transform="translate(103.71 158.74)">if (((j%size_x)!=0) &amp;&amp; (j&lt;vertCount-size_x))</text>
<text transform="translate(320.14 158.74)">j-(j/size_x)-1</text>
<text transform="translate(3.7419 172.21)">Cell 3</text>
<text transform="translate(40.977 172.21)">Down-Right</text>
<text transform="translate(103.71 172.21)">if ((((j+1)%size_x)!=0) &amp;&amp; (j&lt;vertCount-size_x))</text>
<text transform="translate(320.14 172.21)">j-(j/size_x)</text>
<text transform="translate(3.7419 212.59)"><tspan x="0" y="0">Vert 0</tspan></text>
<text transform="translate(40.977 212.59)">Right</text>
<text transform="translate(103.71 212.59)">&lt;none&gt;</text>
<text transform="translate(320.14 212.59)">j+j/(size_x-1)+1</text>
<text transform="translate(3.7419 226.05)"><tspan x="0" y="0">Vert 1</tspan></text>
<text transform="translate(40.977 226.05)">Left</text>
<text transform="translate(103.71 226.05)">&lt;none&gt;</text>
<text transform="translate(320.14 226.05)">j+j/(size_x-1)</text>
<text transform="translate(3.7419 239.52)">Edge 0</text>
<text transform="translate(40.977 239.52)">Right-Down</text>
<text transform="translate(103.71 239.52)">if (j&lt;edgesplit-(size_x-1))</text>
<text transform="translate(320.14 239.52)">j+edgesplit+j/(size_x-1)+1</text>
<text transform="translate(3.7419 252.98)">Edge 1</text>
<text transform="translate(40.977 252.98)">Right-Right</text>
<text transform="translate(103.71 252.98)">if ((j+1)%(size_x-1)!=0)</text>
<text transform="translate(320.14 252.98)">j+1</text>
<text transform="translate(3.7419 266.44)">Edge 2</text>
<text transform="translate(40.977 266.44)">Right-Up</text>
<text transform="translate(103.71 266.44)">if (j&gt;=(size_x-1))</text>
<text transform="translate(320.14 266.44)">j+edgesplit+j/(size_x-1)-size_x+1</text>
<text transform="translate(3.7419 279.91)">Edge 3</text>
<text transform="translate(40.977 279.91)">Left-Up</text>
<text transform="translate(103.71 279.91)">if (j&gt;=(size_x-1))</text>
<text transform="translate(320.14 279.91)">j+edgesplit+j/(size_x-1)-size_x</text>
<text transform="translate(3.7419 293.37)">Edge 4</text>
<text transform="translate(40.977 293.37)">Left-Left</text>
<text transform="translate(103.71 293.37)">if (j%(size_x-1)!=0)</text>
<text transform="translate(320.14 293.37)">j-1</text>
<text transform="translate(3.7419 306.84)">Edge 5</text>
<text transform="translate(40.977 306.84)">Left-Down</text>
<text transform="translate(103.71 306.84)">if (j&lt;edgesplit-(size_x-1))</text>
<text transform="translate(320.14 306.84)">j+edgesplit+j/(size_x-1)</text>
<text transform="translate(3.7419 320.3)">Cell 0</text>
<text transform="translate(40.977 320.3)">Up</text>
<text transform="translate(103.71 320.3)">if (j&gt;=(size_x-1))</text>
<text transform="translate(320.14 320.3)">j-(size_x-1)</text>
<text transform="translate(3.7419 333.76)">Cell 1</text>
<text transform="translate(40.977 333.76)">Down</text>
<text transform="translate(103.71 333.76)">if (j&lt;(edgesplit-(size_x-1)))</text>
<text transform="translate(320.14 333.76)">j</text>
<text transform="translate(3.7419 374.14)"><tspan x="0" y="0">Vert 0</tspan></text>
<text transform="translate(40.977 374.14)">Up</text>
<text transform="translate(103.71 374.14)">&lt;none&gt;</text>
<text transform="translate(320.14 374.14)">j-edgesplit</text>
<text transform="translate(3.7419 387.61)"><tspan x="0" y="0">Vert 1</tspan></text>
<text transform="translate(40.977 387.61)">Down</text>
<text transform="translate(103.71 387.61)">&lt;none&gt;</text>
<text transform="translate(320.14 387.61)">j-edgesplit+size_x</text>
<text transform="translate(3.7419 401.07)">Edge 0</text>
<text transform="translate(40.977 401.07)">Up-Right</text>
<text transform="translate(103.71 401.07)">if (((j+1)%size_x)!=0)</text>
<text transform="translate(320.14 401.07)">j-edgesplit-(j-edgesplit)/size_x</text>
<text transform="translate(3.7419 414.54)">Edge 1</text>
<text transform="translate(40.977 414.54)">Up-Up</text>
<text transform="translate(103.71 414.54)">if (j-edgesplit&gt;=size_x)</text>
<text transform="translate(320.14 414.54)">j-size_x</text>
<text transform="translate(3.7419 428)">Edge 2</text>
<text transform="translate(40.977 428)">Up-Left</text>
<text transform="translate(103.71 428)">if ((j%size_x)!=0)</text>
<text transform="translate(320.14 428)">j-edgesplit-(j-edgesplit)/size_x-1</text>
<text transform="translate(3.7419 441.46)">Edge 3</text>
<text transform="translate(40.977 441.46)">Down-Left</text>
<text transform="translate(103.71 441.46)">if ((j%size_x)!=0)</text>
<text transform="translate(320.14 441.46)">j-edgesplit+(size_x-1)-(j-edgesplit)/size_x-1</text>
<text transform="translate(3.7419 454.93)">Edge 4</text>
<text transform="translate(40.977 454.93)">Down-Down</text>
<text transform="translate(103.71 454.93)">if (j-edgesplit&lt;(edgesplit-size_x))</text>
<text transform="translate(320.14 454.93)">j+size_x</text>
<text transform="translate(3.7419 468.39)">Edge 5</text>
<text transform="translate(40.977 468.39)">Down-Right</text>
<text transform="translate(103.71 468.39)">if (((j+1)%size_x)!=0)</text>
<text transform="translate(320.14 468.39)">j-edgesplit+(size_x-1)-(j-edgesplit)/size_x</text>
<text transform="translate(3.7419 481.86)">Cell 0</text>
<text transform="translate(40.977 481.86)">Right</text>
<text transform="translate(103.71 481.86)">if (((j-edgesplit+1)%size_x)!=0)</text>
<text transform="translate(320.14 481.86)">j-edgesplit-(j-edgesplit)/size_x</text>
<text transform="translate(3.7419 495.32)">Cell 1</text>
<text transform="translate(40.977 495.32)">Left</text>
<text transform="translate(103.71 495.32)">if (((j-edgesplit)%size_x)!=0)</text>
<text transform="translate(320.14 495.32)">j-edgesplit-(j-edgesplit)/size_x-1</text>
<text transform="translate(3.7419 535.7)"><tspan x="0" y="0">Vert 0</tspan></text>
<text transform="translate(40.977 535.7)">Up-Right</text>
<text transform="translate(103.71 535.7)">&lt;none&gt;</text>
<text transform="translate(320.14 535.7)">j+j/(size_x-1)+1</text>
<text transform="translate(3.7419 549.16)"><tspan x="0" y="0">Vert 1</tspan></text>
<text transform="translate(40.977 549.16)">Up-Left</text>
<text transform="translate(103.71 549.16)">&lt;none&gt;</text>
<text transform="translate(320.14 549.16)">j+j/(size_x-1)</text>
<text transform="translate(3.7419 562.63)"><tspan x="0" y="0">Vert 2</tspan></text>
<text transform="translate(40.977 562.63)">Down-Left</text>
<text transform="translate(103.71 562.63)">&lt;none&gt;</text>
<text transform="translate(320.14 562.63)">j+j/(size_x-1)+size_x</text>
<text transform="translate(3.7419 576.09)"><tspan x="0" y="0">Vert 3</tspan></text>
<text transform="translate(40.977 576.09)">Down-Right</text>
<text transform="translate(103.71 576.09)">&lt;none&gt;</text>
<text transform="translate(320.14 576.09)">j+j/(size_x-1)+size_x+1</text>
<text transform="translate(3.7419 589.56)">Edge 0</text>
<text transform="translate(40.977 589.56)">Right</text>
<text transform="translate(103.71 589.56)">&lt;none&gt;</text>
<text transform="translate(320.14 589.56)">j+edgesplit+j/(size_x-1)+1</text>
<text transform="translate(3.7419 603.02)">Edge 1</text>
<text transform="translate(40.977 603.02)">Up</text>
<text transform="translate(103.71 603.02)">&lt;none&gt;</text>
<text transform="translate(320.14 603.02)">j</text>
<text transform="translate(3.7419 616.48)">Edge 2</text>
<text transform="translate(40.977 616.48)">Left</text>
<text transform="translate(103.71 616.48)">&lt;none&gt;</text>
<text transform="translate(320.14 616.48)">j+edgesplit+j/(size_x-1)</text>
<text transform="translate(3.7419 629.95)">Edge 3</text>
<text transform="translate(40.977 629.95)">Down</text>
<text transform="translate(103.71 629.95)">&lt;none&gt;</text>
<text transform="translate(320.14 629.95)">j+(size_x-1)</text>
<text transform="translate(3.7419 643.41)">Cell 0</text>
<text transform="translate(40.977 643.41)">Right</text>
<text transform="translate(103.71 643.41)">if (((j+1)%(size_x-1))!=0)</text>
<text transform="translate(320.14 643.41)">j+1</text>
<text transform="translate(3.7419 656.88)">Cell 1</text>
<text transform="translate(40.977 656.88)">Up</text>
<text transform="translate(103.71 656.88)">if (j&gt;=(size_x-1))</text>
<text transform="translate(320.14 656.88)">j-(size_x-1)</text>
<text transform="translate(3.7419 670.34)">Cell 2</text>
<text transform="translate(40.977 670.34)">Left</text>
<text transform="translate(103.71 670.34)">if ((j%(size_x-1))!=0)</text>
<text transform="translate(320.14 670.34)">j-1</text>
<text transform="translate(3.7419 683.8)">Cell 3</text>
<text transform="translate(40.977 683.8)">Down</text>
<text transform="translate(103.71 683.8)">if (j&lt;cellCount-(size_x-1))</text>
<text transform="translate(320.14 683.8)">j+(size_x-1)</text>
</g><g fill="#FFC480" font-family="Arial" font-weight="bold" font-variant="small-caps" font-size="9.6515px"><text transform="translate(3.7419 10.64)"><tspan x="0" y="0">Vert</tspan></text>
<text transform="translate(40.977 10.64)">Direction</text>
<text transform="translate(103.71 10.64)">Bounds Check</text>
<text transform="translate(320.14 10.64)">Neighbor Index</text>
<text transform="translate(3.7419 199.12)">Edge</text>
<text transform="translate(40.977 199.12)">Direction</text>
<text transform="translate(103.71 199.12)">Bounds Check (j&lt;edgesplit)</text>
<text transform="translate(320.14 199.12)">Neighbor Index</text>
<text transform="translate(3.7419 360.68)">Edge</text>
<text transform="translate(40.977 360.68)">Direction</text>
<text transform="translate(103.71 360.68)">Bounds Check (j&gt;=edgesplit)</text>
<text transform="translate(320.14 360.68)">Neighbor Index</text>
<text transform="translate(3.7419 522.24)">Cell</text>
<text transform="translate(40.977 522.24)">Direction</text>
<text transform="translate(103.71 522.24)">Bounds Check</text>
<text transform="translate(320.14 522.24)">Neighbor Index</text>
</g><g fill="none" stroke="#fff" stroke-linejoin="round" stroke-miterlimit="10" stroke-width=".75"><rect x=".4" y=".4" width="520.1" height="174.9"/><rect x=".4" y="188.8" width="520.2" height="148.1"/><rect x=".4" y="350.4" width="520.1" height="148.1"/><rect x=".5" y="512" width="520.1" height="174.9"/><line x1=".4" x2="520.5" y1="13.9" y2="13.9"/><line x1=".4" x2="520.5" y1="202.3" y2="202.3"/><line x1=".4" x2="520.5" y1="363.8" y2="363.8"/><line x1=".4" x2="520.6" y1="525.4" y2="525.4"/></g></svg>
