<?xml version="1.0" encoding="UTF-8"?>
<!-- Generator: Adobe Illustrator 21.1.0, SVG Export Plug-In . SVG Version: 6.00 Build 0)  -->
<svg enable-background="new 0 0 460 321.3" version="1.1" viewBox="0 0 460 321.3" xml:space="preserve" xmlns="http://www.w3.org/2000/svg" xmlns:cc="http://creativecommons.org/ns#" xmlns:dc="http://purl.org/dc/elements/1.1/" xmlns:rdf="http://www.w3.org/1999/02/22-rdf-syntax-ns#"><metadata><rdf:RDF><cc:Work rdf:about=""><dc:format>image/svg+xml</dc:format><dc:type rdf:resource="http://purl.org/dc/dcmitype/StillImage"/><dc:title/></cc:Work></rdf:RDF></metadata><g id="_x30_"><g id="LWPOLYLINE_11_"><rect y="25" width="460" height="296.3" fill="#111"/></g><g id="LWPOLYLINE_5_"><polygon points="130 295.6 245 295.6 245 50.6 130 50.6 130 176.9 121.4 180 138.6 186.3 130 189.4" fill="#d70"/></g><g id="LWPOLYLINE_2_"><rect x="155" y="75.6" width="85" height="215" fill="#FFB866"/></g><g id="LWPOLYLINE_10_"><polygon points="130 75.6 150 75.6 150 290.6 130 290.6 130 189.4 138.6 186.3 121.4 180 130 176.9" fill="#FFB866"/></g><g id="LWPOLYLINE"><rect x="160" y="90.6" width="75" height="195" fill="#d70"/></g><g id="LWPOLYLINE_1_" opacity=".85"><rect x="165" y="105.6" width="65" height="55" fill="#B3B3B3"/><g fill="none" stroke="#000" stroke-linecap="round" stroke-linejoin="round" stroke-width=".5"><polyline points="165 107.6 165 105.6 167 105.6"/><line x1="171.1" x2="226" y1="105.6" y2="105.6" stroke-dasharray="4.0667,4.0667"/><polyline points="228 105.6 230 105.6 230 107.6"/><line x1="230" x2="230" y1="111.5" y2="156.7" stroke-dasharray="3.9231,3.9231"/><polyline points="230 158.6 230 160.6 228 160.6"/><line x1="223.9" x2="169" y1="160.6" y2="160.6" stroke-dasharray="4.0667,4.0667"/><polyline points="167 160.6 165 160.6 165 158.6"/><line x1="165" x2="165" y1="154.7" y2="109.6" stroke-dasharray="3.9231,3.9231"/></g></g><g id="LWPOLYLINE_3_" opacity=".85"><rect x="165" y="165.6" width="65" height="55" fill="#B3B3B3"/><g fill="none" stroke="#000" stroke-linecap="round" stroke-linejoin="round" stroke-width=".5"><polyline points="165 167.6 165 165.6 167 165.6"/><line x1="171.1" x2="226" y1="165.6" y2="165.6" stroke-dasharray="4.0667,4.0667"/><polyline points="228 165.6 230 165.6 230 167.6"/><line x1="230" x2="230" y1="171.5" y2="216.7" stroke-dasharray="3.9231,3.9231"/><polyline points="230 218.6 230 220.6 228 220.6"/><line x1="223.9" x2="169" y1="220.6" y2="220.6" stroke-dasharray="4.0667,4.0667"/><polyline points="167 220.6 165 220.6 165 218.6"/><line x1="165" x2="165" y1="214.7" y2="169.6" stroke-dasharray="3.9231,3.9231"/></g></g><g id="LWPOLYLINE_4_" opacity=".85"><rect x="165" y="225.6" width="65" height="55" fill="#B3B3B3"/><g fill="none" stroke="#000" stroke-linecap="round" stroke-linejoin="round" stroke-width=".5"><polyline points="165 227.6 165 225.6 167 225.6"/><line x1="171.1" x2="226" y1="225.6" y2="225.6" stroke-dasharray="4.0667,4.0667"/><polyline points="228 225.6 230 225.6 230 227.6"/><line x1="230" x2="230" y1="231.5" y2="276.7" stroke-dasharray="3.9231,3.9231"/><polyline points="230 278.6 230 280.6 228 280.6"/><line x1="223.9" x2="169" y1="280.6" y2="280.6" stroke-dasharray="4.0667,4.0667"/><polyline points="167 280.6 165 280.6 165 278.6"/><line x1="165" x2="165" y1="274.7" y2="229.6" stroke-dasharray="3.9231,3.9231"/></g></g><g id="LWPOLYLINE_6_"><polygon points="130 90.6 145 90.6 145 285.6 130 285.6 130 189.4 138.6 186.3 121.4 180 130 176.9" fill="#d70"/></g><g id="LWPOLYLINE_7_" opacity=".85"><rect x="130" y="105.6" width="10" height="55" fill="#B3B3B3"/><g fill="none" stroke="#000" stroke-linecap="round" stroke-linejoin="round" stroke-width=".5"><polyline points="130 107.6 130 105.6 132 105.6"/><line x1="134" x2="137" y1="105.6" y2="105.6" stroke-dasharray="2,2"/><polyline points="138 105.6 140 105.6 140 107.6"/><line x1="140" x2="140" y1="111.5" y2="156.7" stroke-dasharray="3.9231,3.9231"/><polyline points="140 158.6 140 160.6 138 160.6"/><line x1="136" x2="133" y1="160.6" y2="160.6" stroke-dasharray="2,2"/><polyline points="132 160.6 130 160.6 130 158.6"/><line x1="130" x2="130" y1="154.7" y2="109.6" stroke-dasharray="3.9231,3.9231"/></g></g><g id="LWPOLYLINE_8_" opacity=".85"><polygon points="130 165.6 140 165.6 140 220.6 130 220.6 130 189.4 138.6 186.3 121.4 180 130 176.9" fill="#B3B3B3"/><g fill="none" stroke="#000" stroke-linecap="round" stroke-linejoin="round" stroke-width=".5"><polyline points="130 167.6 130 165.6 132 165.6"/><line x1="134" x2="137" y1="165.6" y2="165.6" stroke-dasharray="2,2"/><polyline points="138 165.6 140 165.6 140 167.6"/><line x1="140" x2="140" y1="171.5" y2="216.7" stroke-dasharray="3.9231,3.9231"/><polyline points="140 218.6 140 220.6 138 220.6"/><line x1="136" x2="133" y1="220.6" y2="220.6" stroke-dasharray="2,2"/><polyline points="132 220.6 130 220.6 130 218.6"/><line x1="130" x2="130" y1="214.7" y2="193.3" stroke-dasharray="3.8929,3.8929"/><polyline points="130 191.4 130 189.4 131.9 188.7"/><polyline points="136.7 186.9 138.6 186.3 136.7 185.6"/><line x1="132.2" x2="125.5" y1="183.9" y2="181.5" stroke-dasharray="4.7579,4.7579"/><polyline points="123.3 180.7 121.4 180 123.3 179.3"/><polyline points="128.1 177.6 130 176.9 130 174.9"/><line x1="130" x2="130" y1="172.5" y2="168.8" stroke-dasharray="2.4167,2.4167"/></g></g><g id="LWPOLYLINE_9_" opacity=".85"><rect x="130" y="225.6" width="10" height="55" fill="#B3B3B3"/><g fill="none" stroke="#000" stroke-linecap="round" stroke-linejoin="round" stroke-width=".5"><polyline points="130 227.6 130 225.6 132 225.6"/><line x1="134" x2="137" y1="225.6" y2="225.6" stroke-dasharray="2,2"/><polyline points="138 225.6 140 225.6 140 227.6"/><line x1="140" x2="140" y1="231.5" y2="276.7" stroke-dasharray="3.9231,3.9231"/><polyline points="140 278.6 140 280.6 138 280.6"/><line x1="136" x2="133" y1="280.6" y2="280.6" stroke-dasharray="2,2"/><polyline points="132 280.6 130 280.6 130 278.6"/><line x1="130" x2="130" y1="274.7" y2="229.6" stroke-dasharray="3.9231,3.9231"/></g></g><g id="LWPOLYLINE_12_"><rect width="460" height="25" fill="#B35F00"/></g><g id="LWPOLYLINE_13_"><polyline points="130 45.6 130 176.9 121.4 180 138.6 186.3 130 189.4 130 300.6" fill="none" stroke="#fff" stroke-linecap="round" stroke-miterlimit="10"/></g><g id="LWPOLYLINE_14_"><rect x="265" y="165.6" width="65" height="15" fill="#d70"/></g><g id="LWPOLYLINE_15_"><rect x="265" y="180.6" width="65" height="40" fill="#FFDBB3"/></g><g id="LWPOLYLINE_16_"><rect x="265" y="105.6" width="65" height="15" fill="#d70"/></g><g id="LWPOLYLINE_17_"><rect x="265" y="120.6" width="65" height="40" fill="#FFDBB3"/></g><g id="LWPOLYLINE_18_"><rect x="265" y="225.6" width="65" height="15" fill="#d70"/></g><g id="LWPOLYLINE_19_"><rect x="265" y="240.6" width="65" height="40" fill="#FFDBB3"/></g></g><g id="Arrows"><g id="LINE"><line x1="230" x2="260.5" y1="133.1" y2="133.1" fill="none" stroke="#fff" stroke-linecap="round" stroke-linejoin="round" stroke-width=".75"/><polygon points="258.4 135.9 259.6 133.1 258.4 130.3 265 133.1" fill="#fff"/></g><g id="LINE_1_"><line x1="230" x2="260.5" y1="193.1" y2="193.1" fill="none" stroke="#fff" stroke-linecap="round" stroke-linejoin="round" stroke-width=".75"/><polygon points="258.4 195.9 259.6 193.1 258.4 190.3 265 193.1" fill="#fff"/></g><g id="LINE_2_"><line x1="230" x2="260.5" y1="253.1" y2="253.1" fill="none" stroke="#fff" stroke-linecap="round" stroke-linejoin="round" stroke-width=".75"/><polygon points="258.4 255.9 259.6 253.1 258.4 250.3 265 253.1" fill="#fff"/></g></g><g id="Text"><g id="MTEXT"><text transform="translate(169.68 115.71)" font-family="Arial" font-weight="bold" font-variant="small-caps" font-size="7px">Shared Pointer</text>
</g><g id="MTEXT_1_"><text transform="translate(164.97 100.71)" font-size="7px"><tspan x="0" y="0" font-family="Arial" font-weight="bold" font-variant="small-caps">Vector</tspan><tspan x="25.4" y="0" font-family="Arial"> refPool</tspan></text>
</g><text transform="translate(159.65 85.71)" font-size="7px"><tspan x="0" y="0" font-family="Arial" font-weight="bold" font-variant="small-caps">Cell</tspan><tspan x="16.3" y="0" font-family="Arial"> address </tspan><tspan x="45.1" y="-0.5" font-family="Arial">{</tspan><tspan x="47.4" y="0" font-family="Arial">0,2,80</tspan><tspan x="66.9" y="-0.5" font-family="Arial">}</tspan><tspan x="69.2" y="0" font-family="Arial"/></text>
<g id="MTEXT_3_"><text transform="translate(169.68 175.71)" font-family="Arial" font-weight="bold" font-variant="small-caps" font-size="7px">Shared Pointer</text>
</g><g id="MTEXT_4_"><text transform="translate(169.68 235.71)" font-family="Arial" font-weight="bold" font-variant="small-caps" font-size="7px">Shared Pointer</text>
</g><g id="MTEXT_5_" font-size="7px"><text transform="translate(134.97 60.625)"><tspan x="0" y="0" font-family="Arial" font-weight="bold" font-variant="small-caps">Vector</tspan><tspan x="25.4" y="0" font-family="Arial"> elem</tspan></text>
<text transform="translate(134.54 68.978)" font-family="Arial">in grid 0, toposet 2</text>
</g><g id="MTEXT_6_"><text transform="translate(5.665 16.298)" font-family="Arial" font-size="12px">Option 2</text>
</g><g id="MTEXT_7_"><text transform="translate(269.97 175.7)" font-size="7px"><tspan x="0" y="0" font-family="Arial" font-weight="bold" font-variant="small-caps">Vector</tspan><tspan x="25.4" y="0" font-family="Arial"> (edge)</tspan></text>
</g><text transform="translate(269.97 190.21)" font-family="Arial" font-size="7px"><tspan x="0" y="0">{</tspan><tspan x="2.3" y="0.5">0,1,179</tspan><tspan x="25.7" y="0">}</tspan></text>
<text transform="translate(269.97 198.63)" font-family="Arial" font-size="7px"><tspan x="0" y="0">{</tspan><tspan x="2.3" y="0.5">0,1,80</tspan><tspan x="21.8" y="0">}</tspan></text>
<text transform="translate(269.97 207.05)" font-family="Arial" font-size="7px"><tspan x="0" y="0">{</tspan><tspan x="2.3" y="0.5">0,1,178</tspan><tspan x="25.7" y="0">}</tspan></text>
<text transform="translate(269.97 215.46)" font-family="Arial" font-size="7px"><tspan x="0" y="0">{</tspan><tspan x="2.3" y="0.5">0,1,89</tspan><tspan x="21.8" y="0">}</tspan></text>
<g id="MTEXT_9_"><text transform="translate(269.97 115.7)" font-size="7px"><tspan x="0" y="0" font-family="Arial" font-weight="bold" font-variant="small-caps">Vector</tspan><tspan x="25.4" y="0" font-family="Arial"> (vert)</tspan></text>
</g><text transform="translate(269.97 130.21)" font-family="Arial" font-size="7px"><tspan x="0" y="0">{</tspan><tspan x="2.3" y="0.5">0,0,89</tspan><tspan x="21.8" y="0">}</tspan></text>
<text transform="translate(269.97 138.63)" font-family="Arial" font-size="7px"><tspan x="0" y="0">{</tspan><tspan x="2.3" y="0.5">0,0,88</tspan><tspan x="21.8" y="0">}</tspan></text>
<text transform="translate(269.97 147.05)" font-family="Arial" font-size="7px"><tspan x="0" y="0">{</tspan><tspan x="2.3" y="0.5">0,0,98</tspan><tspan x="21.8" y="0">}</tspan></text>
<text transform="translate(269.97 155.46)" font-family="Arial" font-size="7px"><tspan x="0" y="0">{</tspan><tspan x="2.3" y="0.5">0,0,99</tspan><tspan x="21.8" y="0">}</tspan></text>
<g id="MTEXT_11_"><text transform="translate(269.97 235.7)" font-size="7px"><tspan x="0" y="0" font-family="Arial" font-weight="bold" font-variant="small-caps">Vector</tspan><tspan x="25.4" y="0" font-family="Arial"> (cell)</tspan></text>
</g><text transform="translate(269.97 250.21)" font-family="Arial" font-size="7px"><tspan x="0" y="0">{</tspan><tspan x="2.3" y="0.5">topo::oob,0,0</tspan><tspan x="43.2" y="0">}</tspan></text>
<text transform="translate(269.97 258.63)" font-family="Arial" font-size="7px"><tspan x="0" y="0">{</tspan><tspan x="2.3" y="0.5">0,2,71</tspan><tspan x="21.8" y="0">}</tspan></text>
<text transform="translate(269.97 267.05)" font-family="Arial" font-size="7px"><tspan x="0" y="0">{</tspan><tspan x="2.3" y="0.5">0,2,79</tspan><tspan x="21.8" y="0">}</tspan></text>
<text transform="translate(269.97 275.46)" font-family="Arial" font-size="7px"><tspan x="0" y="0">{</tspan><tspan x="2.3" y="0.5">topo::oob,0,0</tspan><tspan x="43.2" y="0">}</tspan></text>
</g></svg>
