<?xml version="1.0" encoding="UTF-8"?>
<!-- Generator: Adobe Illustrator 21.1.0, SVG Export Plug-In . SVG Version: 6.00 Build 0)  -->
<svg enable-background="new 0 0 527.5 390" version="1.1" viewBox="0 0 527.5 390" xml:space="preserve" xmlns="http://www.w3.org/2000/svg" xmlns:cc="http://creativecommons.org/ns#" xmlns:dc="http://purl.org/dc/elements/1.1/" xmlns:rdf="http://www.w3.org/1999/02/22-rdf-syntax-ns#"><metadata><rdf:RDF><cc:Work rdf:about=""><dc:format>image/svg+xml</dc:format><dc:type rdf:resource="http://purl.org/dc/dcmitype/StillImage"/><dc:title/></cc:Work></rdf:RDF></metadata><g id="_x30_"><g id="LWPOLYLINE_149_"><rect y="25" width="527.5" height="365" fill="#111"/></g><g id="LWPOLYLINE_39_" opacity=".85"><rect x="222.5" y="45" width="270" height="215" fill="#ccc"/><g fill="none" stroke="#fff" stroke-linecap="round" stroke-linejoin="round" stroke-width=".5"><polyline points="222.5 47 222.5 45 224.5 45"/><line x1="228.5" x2="488.5" y1="45" y2="45" stroke-dasharray="3.9701,3.9701"/><polyline points="490.5 45 492.5 45 492.5 47"/><line x1="492.5" x2="492.5" y1="51" y2="256" stroke-dasharray="3.9811,3.9811"/><polyline points="492.5 258 492.5 260 490.5 260"/><line x1="486.5" x2="226.5" y1="260" y2="260" stroke-dasharray="3.9701,3.9701"/><polyline points="224.5 260 222.5 260 222.5 258"/><line x1="222.5" x2="222.5" y1="254" y2="49" stroke-dasharray="3.9811,3.9811"/></g></g><g id="LWPOLYLINE_148_"><polygon points="20 45 150 45 150 310 507.5 310 507.5 370 120 370 120 340 20 340" fill="#FFDBB3"/></g><g id="LWPOLYLINE_120_"><polygon points="25 205 145 205 145 315 502.5 315 502.5 365 125 365 125 335 25 335" fill="#d70"/></g><g id="LWPOLYLINE_35_"><rect x="130" y="320" width="367.5" height="40" fill="#FFB866"/></g><g id="LWPOLYLINE"><rect x="25" y="60" width="120" height="140" fill="#d70"/></g><g id="LWPOLYLINE_1_"><rect x="227.5" y="60" width="85" height="10" fill="#d70"/></g><g id="LWPOLYLINE_2_"><rect x="227.5" y="72.5" width="85" height="10" fill="#d70"/></g><g id="LWPOLYLINE_3_"><rect x="227.5" y="85" width="85" height="10" fill="#d70"/></g><g id="LWPOLYLINE_4_"><rect x="227.5" y="97.5" width="85" height="10" fill="#d70"/></g><g id="LWPOLYLINE_5_"><rect x="227.5" y="110" width="85" height="10" fill="#d70"/></g><g id="LWPOLYLINE_6_"><rect x="227.5" y="122.5" width="85" height="10" fill="#d70"/></g><g id="LWPOLYLINE_7_"><rect x="227.5" y="135" width="85" height="10" fill="#d70"/></g><g id="LWPOLYLINE_8_"><rect x="227.5" y="147.5" width="85" height="10" fill="#d70"/></g><g id="LWPOLYLINE_9_"><rect x="227.5" y="160" width="85" height="10" fill="#d70"/></g><g id="LWPOLYLINE_10_"><rect x="315" y="60" width="85" height="10" fill="#d70"/></g><g id="LWPOLYLINE_11_"><rect x="315" y="72.5" width="85" height="10" fill="#d70"/></g><g id="LWPOLYLINE_12_"><rect x="315" y="85" width="85" height="10" fill="#d70"/></g><g id="LWPOLYLINE_13_"><rect x="315" y="97.5" width="85" height="10" fill="#d70"/></g><g id="LWPOLYLINE_14_"><rect x="315" y="110" width="85" height="10" fill="#d70"/></g><g id="LWPOLYLINE_15_"><rect x="315" y="122.5" width="85" height="10" fill="#d70"/></g><g id="LWPOLYLINE_16_"><rect x="315" y="135" width="85" height="10" fill="#d70"/></g><g id="LWPOLYLINE_17_"><rect x="315" y="147.5" width="85" height="10" fill="#d70"/></g><g id="LWPOLYLINE_18_"><rect x="315" y="160" width="85" height="10" fill="#d70"/></g><g id="LWPOLYLINE_19_"><rect x="402.5" y="60" width="85" height="10" fill="#d70"/></g><g id="LWPOLYLINE_20_"><rect x="402.5" y="72.5" width="85" height="10" fill="#d70"/></g><g id="LWPOLYLINE_21_"><rect x="402.5" y="85" width="85" height="10" fill="#d70"/></g><g id="LWPOLYLINE_22_"><rect x="402.5" y="97.5" width="85" height="10" fill="#d70"/></g><g id="LWPOLYLINE_23_"><rect x="402.5" y="110" width="85" height="10" fill="#d70"/></g><g id="LWPOLYLINE_24_"><rect x="402.5" y="122.5" width="85" height="10" fill="#d70"/></g><g id="LWPOLYLINE_25_"><rect x="402.5" y="135" width="85" height="10" fill="#d70"/></g><g id="LWPOLYLINE_26_"><rect x="402.5" y="147.5" width="85" height="10" fill="#d70"/></g><g id="LWPOLYLINE_27_"><rect x="402.5" y="160" width="85" height="10" fill="#d70"/></g><g id="LWPOLYLINE_34_"><rect x="135" y="335" width="357.5" height="20" fill="#d70"/></g><g id="LWPOLYLINE_28_"><rect x="227.5" y="170" width="85" height="85" fill="#FFDBB3"/></g><g id="LWPOLYLINE_29_"><rect x="315" y="170" width="85" height="85" fill="#FFDBB3"/></g><g id="LWPOLYLINE_30_"><rect x="402.5" y="170" width="85" height="85" fill="#FFDBB3"/></g><g id="LWPOLYLINE_31_" opacity=".85"><rect x="227.5" y="340" width="85" height="10" fill="#B3B3B3"/><g fill="none" stroke="#000" stroke-linecap="round" stroke-linejoin="round" stroke-width=".5"><polyline points="227.5 342 227.5 340 229.5 340"/><line x1="233.4" x2="308.6" y1="340" y2="340" stroke-dasharray="3.8571,3.8571"/><polyline points="310.5 340 312.5 340 312.5 342"/><line x1="312.5" x2="312.5" y1="344" y2="347" stroke-dasharray="2,2"/><polyline points="312.5 348 312.5 350 310.5 350"/><line x1="306.6" x2="231.4" y1="350" y2="350" stroke-dasharray="3.8571,3.8571"/><polyline points="229.5 350 227.5 350 227.5 348"/><line x1="227.5" x2="227.5" y1="346" y2="343" stroke-dasharray="2,2"/></g></g><g id="LWPOLYLINE_32_" opacity=".85"><rect x="315" y="340" width="85" height="10" fill="#B3B3B3"/><g fill="none" stroke="#000" stroke-linecap="round" stroke-linejoin="round" stroke-width=".5"><polyline points="315 342 315 340 317 340"/><line x1="320.9" x2="396.1" y1="340" y2="340" stroke-dasharray="3.8571,3.8571"/><polyline points="398 340 400 340 400 342"/><line x1="400" x2="400" y1="344" y2="347" stroke-dasharray="2,2"/><polyline points="400 348 400 350 398 350"/><line x1="394.1" x2="318.9" y1="350" y2="350" stroke-dasharray="3.8571,3.8571"/><polyline points="317 350 315 350 315 348"/><line x1="315" x2="315" y1="346" y2="343" stroke-dasharray="2,2"/></g></g><g id="LWPOLYLINE_33_" opacity=".85"><rect x="402.5" y="340" width="85" height="10" fill="#B3B3B3"/><g fill="none" stroke="#000" stroke-linecap="round" stroke-linejoin="round" stroke-width=".5"><polyline points="402.5 342 402.5 340 404.5 340"/><line x1="408.4" x2="483.6" y1="340" y2="340" stroke-dasharray="3.8571,3.8571"/><polyline points="485.5 340 487.5 340 487.5 342"/><line x1="487.5" x2="487.5" y1="344" y2="347" stroke-dasharray="2,2"/><polyline points="487.5 348 487.5 350 485.5 350"/><line x1="481.6" x2="406.4" y1="350" y2="350" stroke-dasharray="3.8571,3.8571"/><polyline points="404.5 350 402.5 350 402.5 348"/><line x1="402.5" x2="402.5" y1="346" y2="343" stroke-dasharray="2,2"/></g></g><g id="LWPOLYLINE_36_"><line x1="270" x2="270" y1="259.5" y2="340" fill="none" stroke="#fff" stroke-linecap="round" stroke-linejoin="round" stroke-width=".75"/><polygon points="267.2 261.6 270 260.4 272.8 261.6 270 255" fill="#fff"/></g><g id="LWPOLYLINE_37_"><line x1="357.5" x2="357.5" y1="259.5" y2="340" fill="none" stroke="#fff" stroke-linecap="round" stroke-linejoin="round" stroke-width=".75"/><polygon points="354.7 261.6 357.5 260.4 360.3 261.6 357.5 255" fill="#fff"/></g><g id="LWPOLYLINE_38_"><line x1="445" x2="445" y1="259.5" y2="340" fill="none" stroke="#fff" stroke-linecap="round" stroke-linejoin="round" stroke-width=".75"/><polygon points="442.2 261.6 445 260.4 447.8 261.6 445 255" fill="#fff"/></g><g id="LWPOLYLINE_40_"><rect x="130" y="307.5" width="10" height="10" fill="#FFB866"/></g><g id="LWPOLYLINE_41_"><rect x="130" y="295" width="10" height="10" fill="#FFB866"/></g><g id="LWPOLYLINE_42_"><rect x="130" y="282.5" width="10" height="10" fill="#FFB866"/></g><g id="LWPOLYLINE_43_"><rect x="130" y="270" width="10" height="10" fill="#FFB866"/></g><g id="LWPOLYLINE_44_"><rect x="130" y="257.5" width="10" height="10" fill="#FFB866"/></g><g id="LWPOLYLINE_45_"><rect x="130" y="245" width="10" height="10" fill="#FFB866"/></g><g id="LWPOLYLINE_46_"><rect x="130" y="232.5" width="10" height="10" fill="#FFB866"/></g><g id="LWPOLYLINE_47_"><rect x="130" y="220" width="10" height="10" fill="#FFB866"/></g><g id="LWPOLYLINE_48_"><rect x="117.5" y="307.5" width="10" height="10" fill="#FFB866"/></g><g id="LWPOLYLINE_49_"><rect x="117.5" y="295" width="10" height="10" fill="#FFB866"/></g><g id="LWPOLYLINE_50_"><rect x="117.5" y="282.5" width="10" height="10" fill="#FFB866"/></g><g id="LWPOLYLINE_51_"><rect x="117.5" y="270" width="10" height="10" fill="#FFB866"/></g><g id="LWPOLYLINE_52_"><rect x="117.5" y="257.5" width="10" height="10" fill="#FFB866"/></g><g id="LWPOLYLINE_53_"><rect x="117.5" y="245" width="10" height="10" fill="#FFB866"/></g><g id="LWPOLYLINE_54_"><rect x="117.5" y="232.5" width="10" height="10" fill="#FFB866"/></g><g id="LWPOLYLINE_55_"><rect x="117.5" y="220" width="10" height="10" fill="#FFB866"/></g><g id="LWPOLYLINE_56_"><rect x="117.5" y="320" width="10" height="10" fill="#FFB866"/></g><g id="LWPOLYLINE_57_"><rect x="105" y="307.5" width="10" height="10" fill="#FFB866"/></g><g id="LWPOLYLINE_58_"><rect x="105" y="295" width="10" height="10" fill="#FFB866"/></g><g id="LWPOLYLINE_59_"><rect x="105" y="282.5" width="10" height="10" fill="#FFB866"/></g><g id="LWPOLYLINE_60_"><rect x="105" y="270" width="10" height="10" fill="#FFB866"/></g><g id="LWPOLYLINE_61_"><rect x="105" y="257.5" width="10" height="10" fill="#FFB866"/></g><g id="LWPOLYLINE_62_"><rect x="105" y="245" width="10" height="10" fill="#FFB866"/></g><g id="LWPOLYLINE_63_"><rect x="105" y="232.5" width="10" height="10" fill="#FFB866"/></g><g id="LWPOLYLINE_64_"><rect x="105" y="220" width="10" height="10" fill="#FFB866"/></g><g id="LWPOLYLINE_65_"><rect x="105" y="320" width="10" height="10" fill="#FFB866"/></g><g id="LWPOLYLINE_66_"><rect x="92.5" y="307.5" width="10" height="10" fill="#FFB866"/></g><g id="LWPOLYLINE_67_"><rect x="92.5" y="295" width="10" height="10" fill="#FFB866"/></g><g id="LWPOLYLINE_68_"><rect x="92.5" y="282.5" width="10" height="10" fill="#FFB866"/></g><g id="LWPOLYLINE_69_"><rect x="92.5" y="270" width="10" height="10" fill="#FFB866"/></g><g id="LWPOLYLINE_70_"><rect x="92.5" y="257.5" width="10" height="10" fill="#FFB866"/></g><g id="LWPOLYLINE_71_"><rect x="92.5" y="245" width="10" height="10" fill="#FFB866"/></g><g id="LWPOLYLINE_72_"><rect x="92.5" y="232.5" width="10" height="10" fill="#FFB866"/></g><g id="LWPOLYLINE_73_"><rect x="92.5" y="220" width="10" height="10" fill="#FFB866"/></g><g id="LWPOLYLINE_74_"><rect x="92.5" y="320" width="10" height="10" fill="#FFB866"/></g><g id="LWPOLYLINE_75_"><rect x="80" y="307.5" width="10" height="10" fill="#FFB866"/></g><g id="LWPOLYLINE_76_"><rect x="80" y="295" width="10" height="10" fill="#FFB866"/></g><g id="LWPOLYLINE_77_"><rect x="80" y="282.5" width="10" height="10" fill="#FFB866"/></g><g id="LWPOLYLINE_78_"><rect x="80" y="270" width="10" height="10" fill="#FFB866"/></g><g id="LWPOLYLINE_79_"><rect x="80" y="257.5" width="10" height="10" fill="#FFB866"/></g><g id="LWPOLYLINE_80_"><rect x="80" y="245" width="10" height="10" fill="#FFB866"/></g><g id="LWPOLYLINE_81_"><rect x="80" y="232.5" width="10" height="10" fill="#FFB866"/></g><g id="LWPOLYLINE_82_"><rect x="80" y="220" width="10" height="10" fill="#FFB866"/></g><g id="LWPOLYLINE_83_"><rect x="80" y="320" width="10" height="10" fill="#FFB866"/></g><g id="LWPOLYLINE_84_"><rect x="67.5" y="307.5" width="10" height="10" fill="#FFB866"/></g><g id="LWPOLYLINE_85_"><rect x="67.5" y="295" width="10" height="10" fill="#FFB866"/></g><g id="LWPOLYLINE_86_"><rect x="67.5" y="282.5" width="10" height="10" fill="#FFB866"/></g><g id="LWPOLYLINE_87_"><rect x="67.5" y="270" width="10" height="10" fill="#FFB866"/></g><g id="LWPOLYLINE_88_"><rect x="67.5" y="257.5" width="10" height="10" fill="#FFB866"/></g><g id="LWPOLYLINE_89_"><rect x="67.5" y="245" width="10" height="10" fill="#FFB866"/></g><g id="LWPOLYLINE_90_"><rect x="67.5" y="232.5" width="10" height="10" fill="#FFB866"/></g><g id="LWPOLYLINE_91_"><rect x="67.5" y="220" width="10" height="10" fill="#FFB866"/></g><g id="LWPOLYLINE_92_"><rect x="67.5" y="320" width="10" height="10" fill="#FFB866"/></g><g id="LWPOLYLINE_93_"><rect x="55" y="307.5" width="10" height="10" fill="#FFB866"/></g><g id="LWPOLYLINE_94_"><rect x="55" y="295" width="10" height="10" fill="#FFB866"/></g><g id="LWPOLYLINE_95_"><rect x="55" y="282.5" width="10" height="10" fill="#FFB866"/></g><g id="LWPOLYLINE_96_"><rect x="55" y="270" width="10" height="10" fill="#FFB866"/></g><g id="LWPOLYLINE_97_"><rect x="55" y="257.5" width="10" height="10" fill="#FFB866"/></g><g id="LWPOLYLINE_98_"><rect x="55" y="245" width="10" height="10" fill="#FFB866"/></g><g id="LWPOLYLINE_99_"><rect x="55" y="232.5" width="10" height="10" fill="#FFB866"/></g><g id="LWPOLYLINE_100_"><rect x="55" y="220" width="10" height="10" fill="#FFB866"/></g><g id="LWPOLYLINE_101_"><rect x="55" y="320" width="10" height="10" fill="#FFB866"/></g><g id="LWPOLYLINE_102_"><rect x="42.5" y="307.5" width="10" height="10" fill="#FFB866"/></g><g id="LWPOLYLINE_103_"><rect x="42.5" y="295" width="10" height="10" fill="#FFB866"/></g><g id="LWPOLYLINE_104_"><rect x="42.5" y="282.5" width="10" height="10" fill="#FFB866"/></g><g id="LWPOLYLINE_105_"><rect x="42.5" y="270" width="10" height="10" fill="#FFB866"/></g><g id="LWPOLYLINE_106_"><rect x="42.5" y="257.5" width="10" height="10" fill="#FFB866"/></g><g id="LWPOLYLINE_107_"><rect x="42.5" y="245" width="10" height="10" fill="#FFB866"/></g><g id="LWPOLYLINE_108_"><rect x="42.5" y="232.5" width="10" height="10" fill="#FFB866"/></g><g id="LWPOLYLINE_109_"><rect x="42.5" y="220" width="10" height="10" fill="#FFB866"/></g><g id="LWPOLYLINE_110_"><rect x="42.5" y="320" width="10" height="10" fill="#FFB866"/></g><g id="LWPOLYLINE_111_"><rect x="30" y="307.5" width="10" height="10" fill="#FFB866"/></g><g id="LWPOLYLINE_112_"><rect x="30" y="295" width="10" height="10" fill="#FFB866"/></g><g id="LWPOLYLINE_113_"><rect x="30" y="282.5" width="10" height="10" fill="#FFB866"/></g><g id="LWPOLYLINE_114_"><rect x="30" y="270" width="10" height="10" fill="#FFB866"/></g><g id="LWPOLYLINE_115_"><rect x="30" y="257.5" width="10" height="10" fill="#FFB866"/></g><g id="LWPOLYLINE_116_"><rect x="30" y="245" width="10" height="10" fill="#FFB866"/></g><g id="LWPOLYLINE_117_"><rect x="30" y="232.5" width="10" height="10" fill="#FFB866"/></g><g id="LWPOLYLINE_118_"><rect x="30" y="220" width="10" height="10" fill="#FFB866"/></g><g id="LWPOLYLINE_119_"><rect x="30" y="320" width="10" height="10" fill="#FFB866"/></g><g id="LWPOLYLINE_121_" opacity=".85"><rect x="105" y="85" width="35" height="10" fill="#B3B3B3"/><g fill="none" stroke="#000" stroke-linecap="round" stroke-linejoin="round" stroke-width=".5"><polyline points="105 93 105 95 107 95"/><line x1="111.4" x2="135.8" y1="95" y2="95" stroke-dasharray="4.4286,4.4286"/><polyline points="138 95 140 95 140 93"/><line x1="140" x2="140" y1="91" y2="88" stroke-dasharray="2,2"/><polyline points="140 87 140 85 138 85"/><line x1="133.6" x2="109.2" y1="85" y2="85" stroke-dasharray="4.4286,4.4286"/><polyline points="107 85 105 85 105 87"/><line x1="105" x2="105" y1="89" y2="92" stroke-dasharray="2,2"/></g></g><g id="LWPOLYLINE_122_" opacity=".85"><rect x="67.5" y="85" width="35" height="10" fill="#B3B3B3"/><g fill="none" stroke="#000" stroke-linecap="round" stroke-linejoin="round" stroke-width=".5"><polyline points="67.5 93 67.5 95 69.5 95"/><line x1="73.9" x2="98.3" y1="95" y2="95" stroke-dasharray="4.4286,4.4286"/><polyline points="100.5 95 102.5 95 102.5 93"/><line x1="102.5" x2="102.5" y1="91" y2="88" stroke-dasharray="2,2"/><polyline points="102.5 87 102.5 85 100.5 85"/><line x1="96.1" x2="71.7" y1="85" y2="85" stroke-dasharray="4.4286,4.4286"/><polyline points="69.5 85 67.5 85 67.5 87"/><line x1="67.5" x2="67.5" y1="89" y2="92" stroke-dasharray="2,2"/></g></g><g id="LWPOLYLINE_123_" opacity=".85"><rect x="30" y="85" width="35" height="10" fill="#B3B3B3"/><g fill="none" stroke="#000" stroke-linecap="round" stroke-linejoin="round" stroke-width=".5"><polyline points="30 93 30 95 32 95"/><line x1="36.4" x2="60.8" y1="95" y2="95" stroke-dasharray="4.4286,4.4286"/><polyline points="63 95 65 95 65 93"/><line x1="65" x2="65" y1="91" y2="88" stroke-dasharray="2,2"/><polyline points="65 87 65 85 63 85"/><line x1="58.6" x2="34.2" y1="85" y2="85" stroke-dasharray="4.4286,4.4286"/><polyline points="32 85 30 85 30 87"/><line x1="30" x2="30" y1="89" y2="92" stroke-dasharray="2,2"/></g></g><g id="LWPOLYLINE_124_" opacity=".85"><rect x="105" y="97.5" width="35" height="10" fill="#B3B3B3"/><g fill="none" stroke="#000" stroke-linecap="round" stroke-linejoin="round" stroke-width=".5"><polyline points="105 105.5 105 107.5 107 107.5"/><line x1="111.4" x2="135.8" y1="107.5" y2="107.5" stroke-dasharray="4.4286,4.4286"/><polyline points="138 107.5 140 107.5 140 105.5"/><line x1="140" x2="140" y1="103.5" y2="100.5" stroke-dasharray="2,2"/><polyline points="140 99.5 140 97.5 138 97.5"/><line x1="133.6" x2="109.2" y1="97.5" y2="97.5" stroke-dasharray="4.4286,4.4286"/><polyline points="107 97.5 105 97.5 105 99.5"/><line x1="105" x2="105" y1="101.5" y2="104.5" stroke-dasharray="2,2"/></g></g><g id="LWPOLYLINE_125_" opacity=".85"><rect x="67.5" y="97.5" width="35" height="10" fill="#B3B3B3"/><g fill="none" stroke="#000" stroke-linecap="round" stroke-linejoin="round" stroke-width=".5"><polyline points="67.5 105.5 67.5 107.5 69.5 107.5"/><line x1="73.9" x2="98.3" y1="107.5" y2="107.5" stroke-dasharray="4.4286,4.4286"/><polyline points="100.5 107.5 102.5 107.5 102.5 105.5"/><line x1="102.5" x2="102.5" y1="103.5" y2="100.5" stroke-dasharray="2,2"/><polyline points="102.5 99.5 102.5 97.5 100.5 97.5"/><line x1="96.1" x2="71.7" y1="97.5" y2="97.5" stroke-dasharray="4.4286,4.4286"/><polyline points="69.5 97.5 67.5 97.5 67.5 99.5"/><line x1="67.5" x2="67.5" y1="101.5" y2="104.5" stroke-dasharray="2,2"/></g></g><g id="LWPOLYLINE_126_" opacity=".85"><rect x="30" y="97.5" width="35" height="10" fill="#B3B3B3"/><g fill="none" stroke="#000" stroke-linecap="round" stroke-linejoin="round" stroke-width=".5"><polyline points="30 105.5 30 107.5 32 107.5"/><line x1="36.4" x2="60.8" y1="107.5" y2="107.5" stroke-dasharray="4.4286,4.4286"/><polyline points="63 107.5 65 107.5 65 105.5"/><line x1="65" x2="65" y1="103.5" y2="100.5" stroke-dasharray="2,2"/><polyline points="65 99.5 65 97.5 63 97.5"/><line x1="58.6" x2="34.2" y1="97.5" y2="97.5" stroke-dasharray="4.4286,4.4286"/><polyline points="32 97.5 30 97.5 30 99.5"/><line x1="30" x2="30" y1="101.5" y2="104.5" stroke-dasharray="2,2"/></g></g><g id="LWPOLYLINE_127_" opacity=".85"><rect x="105" y="110" width="35" height="10" fill="#B3B3B3"/><g fill="none" stroke="#000" stroke-linecap="round" stroke-linejoin="round" stroke-width=".5"><polyline points="105 118 105 120 107 120"/><line x1="111.4" x2="135.8" y1="120" y2="120" stroke-dasharray="4.4286,4.4286"/><polyline points="138 120 140 120 140 118"/><line x1="140" x2="140" y1="116" y2="113" stroke-dasharray="2,2"/><polyline points="140 112 140 110 138 110"/><line x1="133.6" x2="109.2" y1="110" y2="110" stroke-dasharray="4.4286,4.4286"/><polyline points="107 110 105 110 105 112"/><line x1="105" x2="105" y1="114" y2="117" stroke-dasharray="2,2"/></g></g><g id="LWPOLYLINE_128_" opacity=".85"><rect x="67.5" y="110" width="35" height="10" fill="#B3B3B3"/><g fill="none" stroke="#000" stroke-linecap="round" stroke-linejoin="round" stroke-width=".5"><polyline points="67.5 118 67.5 120 69.5 120"/><line x1="73.9" x2="98.3" y1="120" y2="120" stroke-dasharray="4.4286,4.4286"/><polyline points="100.5 120 102.5 120 102.5 118"/><line x1="102.5" x2="102.5" y1="116" y2="113" stroke-dasharray="2,2"/><polyline points="102.5 112 102.5 110 100.5 110"/><line x1="96.1" x2="71.7" y1="110" y2="110" stroke-dasharray="4.4286,4.4286"/><polyline points="69.5 110 67.5 110 67.5 112"/><line x1="67.5" x2="67.5" y1="114" y2="117" stroke-dasharray="2,2"/></g></g><g id="LWPOLYLINE_129_" opacity=".85"><rect x="30" y="110" width="35" height="10" fill="#B3B3B3"/><g fill="none" stroke="#000" stroke-linecap="round" stroke-linejoin="round" stroke-width=".5"><polyline points="30 118 30 120 32 120"/><line x1="36.4" x2="60.8" y1="120" y2="120" stroke-dasharray="4.4286,4.4286"/><polyline points="63 120 65 120 65 118"/><line x1="65" x2="65" y1="116" y2="113" stroke-dasharray="2,2"/><polyline points="65 112 65 110 63 110"/><line x1="58.6" x2="34.2" y1="110" y2="110" stroke-dasharray="4.4286,4.4286"/><polyline points="32 110 30 110 30 112"/><line x1="30" x2="30" y1="114" y2="117" stroke-dasharray="2,2"/></g></g><g id="LWPOLYLINE_130_" opacity=".85"><rect x="105" y="122.5" width="35" height="10" fill="#B3B3B3"/><g fill="none" stroke="#000" stroke-linecap="round" stroke-linejoin="round" stroke-width=".5"><polyline points="105 130.5 105 132.5 107 132.5"/><line x1="111.4" x2="135.8" y1="132.5" y2="132.5" stroke-dasharray="4.4286,4.4286"/><polyline points="138 132.5 140 132.5 140 130.5"/><line x1="140" x2="140" y1="128.5" y2="125.5" stroke-dasharray="2,2"/><polyline points="140 124.5 140 122.5 138 122.5"/><line x1="133.6" x2="109.2" y1="122.5" y2="122.5" stroke-dasharray="4.4286,4.4286"/><polyline points="107 122.5 105 122.5 105 124.5"/><line x1="105" x2="105" y1="126.5" y2="129.5" stroke-dasharray="2,2"/></g></g><g id="LWPOLYLINE_131_" opacity=".85"><rect x="67.5" y="122.5" width="35" height="10" fill="#B3B3B3"/><g fill="none" stroke="#000" stroke-linecap="round" stroke-linejoin="round" stroke-width=".5"><polyline points="67.5 130.5 67.5 132.5 69.5 132.5"/><line x1="73.9" x2="98.3" y1="132.5" y2="132.5" stroke-dasharray="4.4286,4.4286"/><polyline points="100.5 132.5 102.5 132.5 102.5 130.5"/><line x1="102.5" x2="102.5" y1="128.5" y2="125.5" stroke-dasharray="2,2"/><polyline points="102.5 124.5 102.5 122.5 100.5 122.5"/><line x1="96.1" x2="71.7" y1="122.5" y2="122.5" stroke-dasharray="4.4286,4.4286"/><polyline points="69.5 122.5 67.5 122.5 67.5 124.5"/><line x1="67.5" x2="67.5" y1="126.5" y2="129.5" stroke-dasharray="2,2"/></g></g><g id="LWPOLYLINE_132_" opacity=".85"><rect x="30" y="122.5" width="35" height="10" fill="#B3B3B3"/><g fill="none" stroke="#000" stroke-linecap="round" stroke-linejoin="round" stroke-width=".5"><polyline points="30 130.5 30 132.5 32 132.5"/><line x1="36.4" x2="60.8" y1="132.5" y2="132.5" stroke-dasharray="4.4286,4.4286"/><polyline points="63 132.5 65 132.5 65 130.5"/><line x1="65" x2="65" y1="128.5" y2="125.5" stroke-dasharray="2,2"/><polyline points="65 124.5 65 122.5 63 122.5"/><line x1="58.6" x2="34.2" y1="122.5" y2="122.5" stroke-dasharray="4.4286,4.4286"/><polyline points="32 122.5 30 122.5 30 124.5"/><line x1="30" x2="30" y1="126.5" y2="129.5" stroke-dasharray="2,2"/></g></g><g id="LWPOLYLINE_133_" opacity=".85"><rect x="105" y="135" width="35" height="10" fill="#B3B3B3"/><g fill="none" stroke="#000" stroke-linecap="round" stroke-linejoin="round" stroke-width=".5"><polyline points="105 143 105 145 107 145"/><line x1="111.4" x2="135.8" y1="145" y2="145" stroke-dasharray="4.4286,4.4286"/><polyline points="138 145 140 145 140 143"/><line x1="140" x2="140" y1="141" y2="138" stroke-dasharray="2,2"/><polyline points="140 137 140 135 138 135"/><line x1="133.6" x2="109.2" y1="135" y2="135" stroke-dasharray="4.4286,4.4286"/><polyline points="107 135 105 135 105 137"/><line x1="105" x2="105" y1="139" y2="142" stroke-dasharray="2,2"/></g></g><g id="LWPOLYLINE_134_" opacity=".85"><rect x="67.5" y="135" width="35" height="10" fill="#B3B3B3"/><g fill="none" stroke="#000" stroke-linecap="round" stroke-linejoin="round" stroke-width=".5"><polyline points="67.5 143 67.5 145 69.5 145"/><line x1="73.9" x2="98.3" y1="145" y2="145" stroke-dasharray="4.4286,4.4286"/><polyline points="100.5 145 102.5 145 102.5 143"/><line x1="102.5" x2="102.5" y1="141" y2="138" stroke-dasharray="2,2"/><polyline points="102.5 137 102.5 135 100.5 135"/><line x1="96.1" x2="71.7" y1="135" y2="135" stroke-dasharray="4.4286,4.4286"/><polyline points="69.5 135 67.5 135 67.5 137"/><line x1="67.5" x2="67.5" y1="139" y2="142" stroke-dasharray="2,2"/></g></g><g id="LWPOLYLINE_135_" opacity=".85"><rect x="30" y="135" width="35" height="10" fill="#B3B3B3"/><g fill="none" stroke="#000" stroke-linecap="round" stroke-linejoin="round" stroke-width=".5"><polyline points="30 143 30 145 32 145"/><line x1="36.4" x2="60.8" y1="145" y2="145" stroke-dasharray="4.4286,4.4286"/><polyline points="63 145 65 145 65 143"/><line x1="65" x2="65" y1="141" y2="138" stroke-dasharray="2,2"/><polyline points="65 137 65 135 63 135"/><line x1="58.6" x2="34.2" y1="135" y2="135" stroke-dasharray="4.4286,4.4286"/><polyline points="32 135 30 135 30 137"/><line x1="30" x2="30" y1="139" y2="142" stroke-dasharray="2,2"/></g></g><g id="LWPOLYLINE_136_" opacity=".85"><rect x="105" y="147.5" width="35" height="10" fill="#B3B3B3"/><g fill="none" stroke="#000" stroke-linecap="round" stroke-linejoin="round" stroke-width=".5"><polyline points="105 155.5 105 157.5 107 157.5"/><line x1="111.4" x2="135.8" y1="157.5" y2="157.5" stroke-dasharray="4.4286,4.4286"/><polyline points="138 157.5 140 157.5 140 155.5"/><line x1="140" x2="140" y1="153.5" y2="150.5" stroke-dasharray="2,2"/><polyline points="140 149.5 140 147.5 138 147.5"/><line x1="133.6" x2="109.2" y1="147.5" y2="147.5" stroke-dasharray="4.4286,4.4286"/><polyline points="107 147.5 105 147.5 105 149.5"/><line x1="105" x2="105" y1="151.5" y2="154.5" stroke-dasharray="2,2"/></g></g><g id="LWPOLYLINE_137_" opacity=".85"><rect x="67.5" y="147.5" width="35" height="10" fill="#B3B3B3"/><g fill="none" stroke="#000" stroke-linecap="round" stroke-linejoin="round" stroke-width=".5"><polyline points="67.5 155.5 67.5 157.5 69.5 157.5"/><line x1="73.9" x2="98.3" y1="157.5" y2="157.5" stroke-dasharray="4.4286,4.4286"/><polyline points="100.5 157.5 102.5 157.5 102.5 155.5"/><line x1="102.5" x2="102.5" y1="153.5" y2="150.5" stroke-dasharray="2,2"/><polyline points="102.5 149.5 102.5 147.5 100.5 147.5"/><line x1="96.1" x2="71.7" y1="147.5" y2="147.5" stroke-dasharray="4.4286,4.4286"/><polyline points="69.5 147.5 67.5 147.5 67.5 149.5"/><line x1="67.5" x2="67.5" y1="151.5" y2="154.5" stroke-dasharray="2,2"/></g></g><g id="LWPOLYLINE_138_" opacity=".85"><rect x="30" y="147.5" width="35" height="10" fill="#B3B3B3"/><g fill="none" stroke="#000" stroke-linecap="round" stroke-linejoin="round" stroke-width=".5"><polyline points="30 155.5 30 157.5 32 157.5"/><line x1="36.4" x2="60.8" y1="157.5" y2="157.5" stroke-dasharray="4.4286,4.4286"/><polyline points="63 157.5 65 157.5 65 155.5"/><line x1="65" x2="65" y1="153.5" y2="150.5" stroke-dasharray="2,2"/><polyline points="65 149.5 65 147.5 63 147.5"/><line x1="58.6" x2="34.2" y1="147.5" y2="147.5" stroke-dasharray="4.4286,4.4286"/><polyline points="32 147.5 30 147.5 30 149.5"/><line x1="30" x2="30" y1="151.5" y2="154.5" stroke-dasharray="2,2"/></g></g><g id="LWPOLYLINE_139_" opacity=".85"><rect x="105" y="160" width="35" height="10" fill="#B3B3B3"/><g fill="none" stroke="#000" stroke-linecap="round" stroke-linejoin="round" stroke-width=".5"><polyline points="105 168 105 170 107 170"/><line x1="111.4" x2="135.8" y1="170" y2="170" stroke-dasharray="4.4286,4.4286"/><polyline points="138 170 140 170 140 168"/><line x1="140" x2="140" y1="166" y2="163" stroke-dasharray="2,2"/><polyline points="140 162 140 160 138 160"/><line x1="133.6" x2="109.2" y1="160" y2="160" stroke-dasharray="4.4286,4.4286"/><polyline points="107 160 105 160 105 162"/><line x1="105" x2="105" y1="164" y2="167" stroke-dasharray="2,2"/></g></g><g id="LWPOLYLINE_140_" opacity=".85"><rect x="67.5" y="160" width="35" height="10" fill="#B3B3B3"/><g fill="none" stroke="#000" stroke-linecap="round" stroke-linejoin="round" stroke-width=".5"><polyline points="67.5 168 67.5 170 69.5 170"/><line x1="73.9" x2="98.3" y1="170" y2="170" stroke-dasharray="4.4286,4.4286"/><polyline points="100.5 170 102.5 170 102.5 168"/><line x1="102.5" x2="102.5" y1="166" y2="163" stroke-dasharray="2,2"/><polyline points="102.5 162 102.5 160 100.5 160"/><line x1="96.1" x2="71.7" y1="160" y2="160" stroke-dasharray="4.4286,4.4286"/><polyline points="69.5 160 67.5 160 67.5 162"/><line x1="67.5" x2="67.5" y1="164" y2="167" stroke-dasharray="2,2"/></g></g><g id="LWPOLYLINE_141_" opacity=".85"><rect x="30" y="160" width="35" height="10" fill="#B3B3B3"/><g fill="none" stroke="#000" stroke-linecap="round" stroke-linejoin="round" stroke-width=".5"><polyline points="30 168 30 170 32 170"/><line x1="36.4" x2="60.8" y1="170" y2="170" stroke-dasharray="4.4286,4.4286"/><polyline points="63 170 65 170 65 168"/><line x1="65" x2="65" y1="166" y2="163" stroke-dasharray="2,2"/><polyline points="65 162 65 160 63 160"/><line x1="58.6" x2="34.2" y1="160" y2="160" stroke-dasharray="4.4286,4.4286"/><polyline points="32 160 30 160 30 162"/><line x1="30" x2="30" y1="164" y2="167" stroke-dasharray="2,2"/></g></g><g id="LWPOLYLINE_142_" opacity=".85"><rect x="105" y="172.5" width="35" height="10" fill="#B3B3B3"/><g fill="none" stroke="#000" stroke-linecap="round" stroke-linejoin="round" stroke-width=".5"><polyline points="105 180.5 105 182.5 107 182.5"/><line x1="111.4" x2="135.8" y1="182.5" y2="182.5" stroke-dasharray="4.4286,4.4286"/><polyline points="138 182.5 140 182.5 140 180.5"/><line x1="140" x2="140" y1="178.5" y2="175.5" stroke-dasharray="2,2"/><polyline points="140 174.5 140 172.5 138 172.5"/><line x1="133.6" x2="109.2" y1="172.5" y2="172.5" stroke-dasharray="4.4286,4.4286"/><polyline points="107 172.5 105 172.5 105 174.5"/><line x1="105" x2="105" y1="176.5" y2="179.5" stroke-dasharray="2,2"/></g></g><g id="LWPOLYLINE_143_" opacity=".85"><rect x="67.5" y="172.5" width="35" height="10" fill="#B3B3B3"/><g fill="none" stroke="#000" stroke-linecap="round" stroke-linejoin="round" stroke-width=".5"><polyline points="67.5 180.5 67.5 182.5 69.5 182.5"/><line x1="73.9" x2="98.3" y1="182.5" y2="182.5" stroke-dasharray="4.4286,4.4286"/><polyline points="100.5 182.5 102.5 182.5 102.5 180.5"/><line x1="102.5" x2="102.5" y1="178.5" y2="175.5" stroke-dasharray="2,2"/><polyline points="102.5 174.5 102.5 172.5 100.5 172.5"/><line x1="96.1" x2="71.7" y1="172.5" y2="172.5" stroke-dasharray="4.4286,4.4286"/><polyline points="69.5 172.5 67.5 172.5 67.5 174.5"/><line x1="67.5" x2="67.5" y1="176.5" y2="179.5" stroke-dasharray="2,2"/></g></g><g id="LWPOLYLINE_144_" opacity=".85"><rect x="30" y="172.5" width="35" height="10" fill="#B3B3B3"/><g fill="none" stroke="#000" stroke-linecap="round" stroke-linejoin="round" stroke-width=".5"><polyline points="30 180.5 30 182.5 32 182.5"/><line x1="36.4" x2="60.8" y1="182.5" y2="182.5" stroke-dasharray="4.4286,4.4286"/><polyline points="63 182.5 65 182.5 65 180.5"/><line x1="65" x2="65" y1="178.5" y2="175.5" stroke-dasharray="2,2"/><polyline points="65 174.5 65 172.5 63 172.5"/><line x1="58.6" x2="34.2" y1="172.5" y2="172.5" stroke-dasharray="4.4286,4.4286"/><polyline points="32 172.5 30 172.5 30 174.5"/><line x1="30" x2="30" y1="176.5" y2="179.5" stroke-dasharray="2,2"/></g></g><g id="LWPOLYLINE_145_" opacity=".85"><rect x="105" y="185" width="35" height="10" fill="#B3B3B3"/><g fill="none" stroke="#000" stroke-linecap="round" stroke-linejoin="round" stroke-width=".5"><polyline points="105 193 105 195 107 195"/><line x1="111.4" x2="135.8" y1="195" y2="195" stroke-dasharray="4.4286,4.4286"/><polyline points="138 195 140 195 140 193"/><line x1="140" x2="140" y1="191" y2="188" stroke-dasharray="2,2"/><polyline points="140 187 140 185 138 185"/><line x1="133.6" x2="109.2" y1="185" y2="185" stroke-dasharray="4.4286,4.4286"/><polyline points="107 185 105 185 105 187"/><line x1="105" x2="105" y1="189" y2="192" stroke-dasharray="2,2"/></g></g><g id="LWPOLYLINE_146_" opacity=".85"><rect x="67.5" y="185" width="35" height="10" fill="#B3B3B3"/><g fill="none" stroke="#000" stroke-linecap="round" stroke-linejoin="round" stroke-width=".5"><polyline points="67.5 193 67.5 195 69.5 195"/><line x1="73.9" x2="98.3" y1="195" y2="195" stroke-dasharray="4.4286,4.4286"/><polyline points="100.5 195 102.5 195 102.5 193"/><line x1="102.5" x2="102.5" y1="191" y2="188" stroke-dasharray="2,2"/><polyline points="102.5 187 102.5 185 100.5 185"/><line x1="96.1" x2="71.7" y1="185" y2="185" stroke-dasharray="4.4286,4.4286"/><polyline points="69.5 185 67.5 185 67.5 187"/><line x1="67.5" x2="67.5" y1="189" y2="192" stroke-dasharray="2,2"/></g></g><g id="LWPOLYLINE_147_" opacity=".85"><rect x="30" y="185" width="35" height="10" fill="#B3B3B3"/><g fill="none" stroke="#000" stroke-linecap="round" stroke-linejoin="round" stroke-width=".5"><polyline points="30 193 30 195 32 195"/><line x1="36.4" x2="60.8" y1="195" y2="195" stroke-dasharray="4.4286,4.4286"/><polyline points="63 195 65 195 65 193"/><line x1="65" x2="65" y1="191" y2="188" stroke-dasharray="2,2"/><polyline points="65 187 65 185 63 185"/><line x1="58.6" x2="34.2" y1="185" y2="185" stroke-dasharray="4.4286,4.4286"/><polyline points="32 185 30 185 30 187"/><line x1="30" x2="30" y1="189" y2="192" stroke-dasharray="2,2"/></g></g><g id="LINE"><line x1="145" x2="222.5" y1="60" y2="45" fill="none" stroke="#fff" stroke-linecap="round" stroke-linejoin="round" stroke-miterlimit="10" stroke-width=".75"/></g><g id="LINE_1_"><line x1="145" x2="222.5" y1="200" y2="260" fill="none" stroke="#fff" stroke-linecap="round" stroke-linejoin="round" stroke-miterlimit="10" stroke-width=".75"/></g><g id="LWPOLYLINE_150_"><rect width="527.5" height="25" fill="#B35F00"/></g></g><g id="Text"><g id="MTEXT"><text transform="translate(229.97 67.58)" font-size="7px"><tspan x="0" y="0" font-family="Arial" font-weight="bold" font-variant="small-caps">Vector</tspan><tspan x="25.4" y="0" font-family="Arial"> (row 1)</tspan></text>
</g><g id="MTEXT_1_"><text transform="translate(229.97 80.08)" font-size="7px"><tspan x="0" y="0" font-family="Arial" font-weight="bold" font-variant="small-caps">Vector</tspan><tspan x="25.4" y="0" font-family="Arial"> (row 2)</tspan></text>
</g><g id="MTEXT_2_"><text transform="translate(229.97 92.58)" font-size="7px"><tspan x="0" y="0" font-family="Arial" font-weight="bold" font-variant="small-caps">Vector</tspan><tspan x="25.4" y="0" font-family="Arial"> (row 3)</tspan></text>
</g><g id="MTEXT_3_"><text transform="translate(229.97 105.08)" font-size="7px"><tspan x="0" y="0" font-family="Arial" font-weight="bold" font-variant="small-caps">Vector</tspan><tspan x="25.4" y="0" font-family="Arial"> (row 4)</tspan></text>
</g><g id="MTEXT_4_"><text transform="translate(229.97 117.58)" font-size="7px"><tspan x="0" y="0" font-family="Arial" font-weight="bold" font-variant="small-caps">Vector</tspan><tspan x="25.4" y="0" font-family="Arial"> (row 5)</tspan></text>
</g><g id="MTEXT_5_"><text transform="translate(229.97 130.08)" font-size="7px"><tspan x="0" y="0" font-family="Arial" font-weight="bold" font-variant="small-caps">Vector</tspan><tspan x="25.4" y="0" font-family="Arial"> (row 6)</tspan></text>
</g><g id="MTEXT_6_"><text transform="translate(229.97 142.58)" font-size="7px"><tspan x="0" y="0" font-family="Arial" font-weight="bold" font-variant="small-caps">Vector</tspan><tspan x="25.4" y="0" font-family="Arial"> (row 7)</tspan></text>
</g><g id="MTEXT_7_"><text transform="translate(229.97 155.08)" font-size="7px"><tspan x="0" y="0" font-family="Arial" font-weight="bold" font-variant="small-caps">Vector</tspan><tspan x="25.4" y="0" font-family="Arial"> (row 8)</tspan></text>
</g><g id="MTEXT_8_"><text transform="translate(229.97 167.58)" font-size="7px"><tspan x="0" y="0" font-family="Arial" font-weight="bold" font-variant="small-caps">Vector</tspan><tspan x="25.4" y="0" font-family="Arial"> (row 9)</tspan></text>
</g><g id="MTEXT_9_"><text transform="translate(317.47 67.58)" font-size="7px"><tspan x="0" y="0" font-family="Arial" font-weight="bold" font-variant="small-caps">Vector</tspan><tspan x="25.4" y="0" font-family="Arial"> (column 1)</tspan></text>
</g><g id="MTEXT_10_"><text transform="translate(317.47 80.08)" font-size="7px"><tspan x="0" y="0" font-family="Arial" font-weight="bold" font-variant="small-caps">Vector</tspan><tspan x="25.4" y="0" font-family="Arial"> (column 2)</tspan></text>
</g><g id="MTEXT_11_"><text transform="translate(317.47 92.58)" font-size="7px"><tspan x="0" y="0" font-family="Arial" font-weight="bold" font-variant="small-caps">Vector</tspan><tspan x="25.4" y="0" font-family="Arial"> (column 3)</tspan></text>
</g><g id="MTEXT_12_"><text transform="translate(317.47 105.08)" font-size="7px"><tspan x="0" y="0" font-family="Arial" font-weight="bold" font-variant="small-caps">Vector</tspan><tspan x="25.4" y="0" font-family="Arial"> (column 4)</tspan></text>
</g><g id="MTEXT_13_"><text transform="translate(317.47 117.58)" font-size="7px"><tspan x="0" y="0" font-family="Arial" font-weight="bold" font-variant="small-caps">Vector</tspan><tspan x="25.4" y="0" font-family="Arial"> (column 5)</tspan></text>
</g><g id="MTEXT_14_"><text transform="translate(317.47 130.08)" font-size="7px"><tspan x="0" y="0" font-family="Arial" font-weight="bold" font-variant="small-caps">Vector</tspan><tspan x="25.4" y="0" font-family="Arial"> (column 6)</tspan></text>
</g><g id="MTEXT_15_"><text transform="translate(317.47 142.58)" font-size="7px"><tspan x="0" y="0" font-family="Arial" font-weight="bold" font-variant="small-caps">Vector</tspan><tspan x="25.4" y="0" font-family="Arial"> (column 7)</tspan></text>
</g><g id="MTEXT_16_"><text transform="translate(317.47 155.08)" font-size="7px"><tspan x="0" y="0" font-family="Arial" font-weight="bold" font-variant="small-caps">Vector</tspan><tspan x="25.4" y="0" font-family="Arial"> (column 8)</tspan></text>
</g><g id="MTEXT_17_"><text transform="translate(317.47 167.58)" font-size="7px"><tspan x="0" y="0" font-family="Arial" font-weight="bold" font-variant="small-caps">Vector</tspan><tspan x="25.4" y="0" font-family="Arial"> (column 9)</tspan></text>
</g><g id="MTEXT_18_"><text transform="translate(404.97 67.58)" font-size="7px"><tspan x="0" y="0" font-family="Arial" font-weight="bold" font-variant="small-caps">Vector</tspan><tspan x="25.4" y="0" font-family="Arial"> (block 1)</tspan></text>
</g><g id="MTEXT_19_"><text transform="translate(404.97 80.08)" font-size="7px"><tspan x="0" y="0" font-family="Arial" font-weight="bold" font-variant="small-caps">Vector</tspan><tspan x="25.4" y="0" font-family="Arial"> (block 2)</tspan></text>
</g><g id="MTEXT_20_"><text transform="translate(404.97 92.58)" font-size="7px"><tspan x="0" y="0" font-family="Arial" font-weight="bold" font-variant="small-caps">Vector</tspan><tspan x="25.4" y="0" font-family="Arial"> (block 3)</tspan></text>
</g><g id="MTEXT_21_"><text transform="translate(404.97 105.08)" font-size="7px"><tspan x="0" y="0" font-family="Arial" font-weight="bold" font-variant="small-caps">Vector</tspan><tspan x="25.4" y="0" font-family="Arial"> (block 4)</tspan></text>
</g><g id="MTEXT_22_"><text transform="translate(404.97 117.58)" font-size="7px"><tspan x="0" y="0" font-family="Arial" font-weight="bold" font-variant="small-caps">Vector</tspan><tspan x="25.4" y="0" font-family="Arial"> (block 5)</tspan></text>
</g><g id="MTEXT_23_"><text transform="translate(404.97 130.08)" font-size="7px"><tspan x="0" y="0" font-family="Arial" font-weight="bold" font-variant="small-caps">Vector</tspan><tspan x="25.4" y="0" font-family="Arial"> (block 6)</tspan></text>
</g><g id="MTEXT_24_"><text transform="translate(404.97 142.58)" font-size="7px"><tspan x="0" y="0" font-family="Arial" font-weight="bold" font-variant="small-caps">Vector</tspan><tspan x="25.4" y="0" font-family="Arial"> (block 7)</tspan></text>
</g><g id="MTEXT_25_"><text transform="translate(404.97 155.08)" font-size="7px"><tspan x="0" y="0" font-family="Arial" font-weight="bold" font-variant="small-caps">Vector</tspan><tspan x="25.4" y="0" font-family="Arial"> (block 8)</tspan></text>
</g><g id="MTEXT_26_"><text transform="translate(404.97 167.58)" font-size="7px"><tspan x="0" y="0" font-family="Arial" font-weight="bold" font-variant="small-caps">Vector</tspan><tspan x="25.4" y="0" font-family="Arial"> (block 9)</tspan></text>
</g><g id="MTEXT_27_" font-size="7px"><text transform="translate(29.97 70.085)"><tspan x="0" y="0" font-family="Arial" font-weight="bold" font-variant="small-caps">Vector</tspan><tspan x="25.4" y="0" font-family="Arial"> refPool</tspan></text>
<text transform="translate(29.785 78.418)" font-family="Arial">shared pointers</text>
</g><rect x="230" y="174" width="80" height="76" fill="none"/><text transform="matrix(1.0382 0 0 1 229.97 179.53)" font-family="Arial" font-size="7px"><tspan x="0" y="0">{</tspan><tspan x="2.3" y="0.5">0,2,72</tspan><tspan x="21.8" y="0">}</tspan><tspan x="0" y="8.4">{</tspan><tspan x="2.3" y="8.9">0,2,73</tspan><tspan x="21.8" y="8.4">}</tspan><tspan x="0" y="16.8">{</tspan><tspan x="2.3" y="17.3">0,2,74</tspan><tspan x="21.8" y="16.8">}</tspan><tspan x="0" y="25.2">{</tspan><tspan x="2.3" y="25.7">0,2,75</tspan><tspan x="21.8" y="25.2">}</tspan><tspan x="0" y="33.6">{</tspan><tspan x="2.3" y="34.1">0,2,76</tspan><tspan x="21.8" y="33.6">}</tspan><tspan x="0" y="42">{</tspan><tspan x="2.3" y="42.5">0,2,77</tspan><tspan x="21.8" y="42">}</tspan><tspan x="0" y="50.4">{</tspan><tspan x="2.3" y="50.9">0,2,78</tspan><tspan x="21.8" y="50.4">}</tspan><tspan x="0" y="58.8">{</tspan><tspan x="2.3" y="59.3">0,2,79</tspan><tspan x="21.8" y="58.8">}</tspan><tspan x="0" y="67.2">{</tspan><tspan x="2.3" y="67.7">0,2,80</tspan><tspan x="21.8" y="67.2">}</tspan></text>
<rect x="317.5" y="174" width="80" height="76" fill="none"/><text transform="matrix(1.0382 0 0 1 317.5 179.53)" font-family="Arial" font-size="7px"><tspan x="0" y="0">{</tspan><tspan x="2.3" y="0.5">0,2,8</tspan><tspan x="17.9" y="0">}</tspan><tspan x="0" y="8.4">{</tspan><tspan x="2.3" y="8.9">0,2,17</tspan><tspan x="21.8" y="8.4">}</tspan><tspan x="0" y="16.8">{</tspan><tspan x="2.3" y="17.3">0,2,26</tspan><tspan x="21.8" y="16.8">}</tspan><tspan x="0" y="25.2">{</tspan><tspan x="2.3" y="25.7">0,2,35</tspan><tspan x="21.8" y="25.2">}</tspan><tspan x="0" y="33.6">{</tspan><tspan x="2.3" y="34.1">0,2,44</tspan><tspan x="21.8" y="33.6">}</tspan><tspan x="0" y="42">{</tspan><tspan x="2.3" y="42.5">0,2,53</tspan><tspan x="21.8" y="42">}</tspan><tspan x="0" y="50.4">{</tspan><tspan x="2.3" y="50.9">0,2,62</tspan><tspan x="21.8" y="50.4">}</tspan><tspan x="0" y="58.8">{</tspan><tspan x="2.3" y="59.3">0,2,71</tspan><tspan x="21.8" y="58.8">}</tspan><tspan x="0" y="67.2">{</tspan><tspan x="2.3" y="67.7">0,2,80</tspan><tspan x="21.8" y="67.2">}</tspan></text>
<rect x="405" y="174" width="80" height="76" fill="none"/><text transform="matrix(1.0382 0 0 1 405 179.53)" font-family="Arial" font-size="7px"><tspan x="0" y="0">{</tspan><tspan x="2.3" y="0.5">0,2,60</tspan><tspan x="21.8" y="0">}</tspan><tspan x="0" y="8.4">{</tspan><tspan x="2.3" y="8.9">0,2,61</tspan><tspan x="21.8" y="8.4">}</tspan><tspan x="0" y="16.8">{</tspan><tspan x="2.3" y="17.3">0,2,62</tspan><tspan x="21.8" y="16.8">}</tspan><tspan x="0" y="25.2">{</tspan><tspan x="2.3" y="25.7">0,2,69</tspan><tspan x="21.8" y="25.2">}</tspan><tspan x="0" y="33.6">{</tspan><tspan x="2.3" y="34.1">0,2,70</tspan><tspan x="21.8" y="33.6">}</tspan><tspan x="0" y="42">{</tspan><tspan x="2.3" y="42.5">0,2,71</tspan><tspan x="21.8" y="42">}</tspan><tspan x="0" y="50.4">{</tspan><tspan x="2.3" y="50.9">0,2,78</tspan><tspan x="21.8" y="50.4">}</tspan><tspan x="0" y="58.8">{</tspan><tspan x="2.3" y="59.3">0,2,79</tspan><tspan x="21.8" y="58.8">}</tspan><tspan x="0" y="67.2">{</tspan><tspan x="2.3" y="67.7">0,2,80</tspan><tspan x="21.8" y="67.2">}</tspan></text>
<g id="MTEXT_31_"><text transform="translate(229.68 347.58)" font-family="Arial" font-size="7px">Shared Pointer</text>
</g><g id="MTEXT_32_"><text transform="translate(317.18 347.58)" font-family="Arial" font-size="7px">Shared Pointer</text>
</g><g id="MTEXT_33_"><text transform="translate(404.68 347.58)" font-family="Arial" font-size="7px">Shared Pointer</text>
</g><g id="MTEXT_34_"><text transform="translate(139.97 346.2)" font-size="7px"><tspan x="0" y="0" font-family="Arial" font-weight="bold" font-variant="small-caps">Vector</tspan><tspan x="25.4" y="0" font-family="Arial"> backRef</tspan></text>
</g><text transform="translate(134.65 330.08)" font-size="7px"><tspan x="0" y="0" font-family="Arial" font-weight="bold" font-variant="small-caps">Cell </tspan><tspan x="18.3" y="0" font-family="Arial">address  </tspan><tspan x="47.1" y="-0.5" font-family="Arial">{</tspan><tspan x="49.4" y="0" font-family="Arial">0,2,80</tspan><tspan x="68.9" y="-0.5" font-family="Arial">}</tspan></text>
<g id="MTEXT_36_"><text transform="translate(227.15 55.085)" font-family="Arial" font-size="7px">Created by std::make_shared in toposet</text>
</g><g id="MTEXT_37_"><text transform="translate(29.97 215)" font-size="7px"><tspan x="0" y="0" font-family="Arial" font-weight="bold" font-variant="small-caps">Vector</tspan><tspan x="25.4" y="0" font-family="Arial"> elem</tspan></text>
</g><g id="MTEXT_38_"><text transform="translate(24.835 55.02)" font-size="7px"><tspan x="0" y="0" font-family="Arial" font-weight="bold" font-variant="small-caps">Toposet </tspan><tspan x="30.9" y="0" font-family="Arial">2 in grid 0</tspan></text>
</g><g id="MTEXT_39_"><text transform="translate(4.68 15.752)" font-family="Arial" font-size="12px">Shared Reference Lists</text>
</g></g></svg>
