<?xml version="1.0" encoding="UTF-8"?>
<!-- Generator: Adobe Illustrator 21.1.0, SVG Export Plug-In . SVG Version: 6.00 Build 0)  -->
<svg enable-background="new 0 0 460 321.3" version="1.1" viewBox="0 0 460 321.3" xml:space="preserve" xmlns="http://www.w3.org/2000/svg" xmlns:cc="http://creativecommons.org/ns#" xmlns:dc="http://purl.org/dc/elements/1.1/" xmlns:rdf="http://www.w3.org/1999/02/22-rdf-syntax-ns#"><metadata><rdf:RDF><cc:Work rdf:about=""><dc:format>image/svg+xml</dc:format><dc:type rdf:resource="http://purl.org/dc/dcmitype/StillImage"/><dc:title/></cc:Work></rdf:RDF></metadata><g id="_x30_"><g id="LWPOLYLINE_50_"><rect y="25" width="460" height="296.3" fill="#111"/></g><g id="LWPOLYLINE_7_"><polygon points="20 290 135 290 135 45 20 45 20 171.3 11.4 174.4 28.6 180.6 20 183.8" fill="#d70"/></g><g id="LWPOLYLINE_13_"><rect x="265" y="156.3" width="70" height="67.5" fill="#d70"/></g><g id="LWPOLYLINE_19_"><rect x="265" y="78.8" width="70" height="67.5" fill="#d70"/></g><g id="LWPOLYLINE_25_"><rect x="265" y="233.8" width="70" height="67.5" fill="#d70"/></g><g id="LWPOLYLINE_2_"><rect x="155" y="70" width="85" height="215" fill="#FFB866"/></g><g id="LWPOLYLINE"><rect x="160" y="85" width="75" height="195" fill="#d70"/></g><g id="LWPOLYLINE_1_" opacity=".85"><rect x="165" y="100" width="65" height="55" fill="#B3B3B3"/><g fill="none" stroke="#000" stroke-linecap="round" stroke-linejoin="round" stroke-width=".5"><polyline points="165 102 165 100 167 100"/><line x1="171.1" x2="226" y1="100" y2="100" stroke-dasharray="4.0667,4.0667"/><polyline points="228 100 230 100 230 102"/><line x1="230" x2="230" y1="105.9" y2="151" stroke-dasharray="3.9231,3.9231"/><polyline points="230 153 230 155 228 155"/><line x1="223.9" x2="169" y1="155" y2="155" stroke-dasharray="4.0667,4.0667"/><polyline points="167 155 165 155 165 153"/><line x1="165" x2="165" y1="149.1" y2="104" stroke-dasharray="3.9231,3.9231"/></g></g><g id="LWPOLYLINE_3_" opacity=".85"><rect x="165" y="160" width="65" height="55" fill="#B3B3B3"/><g fill="none" stroke="#000" stroke-linecap="round" stroke-linejoin="round" stroke-width=".5"><polyline points="165 162 165 160 167 160"/><line x1="171.1" x2="226" y1="160" y2="160" stroke-dasharray="4.0667,4.0667"/><polyline points="228 160 230 160 230 162"/><line x1="230" x2="230" y1="165.9" y2="211" stroke-dasharray="3.9231,3.9231"/><polyline points="230 213 230 215 228 215"/><line x1="223.9" x2="169" y1="215" y2="215" stroke-dasharray="4.0667,4.0667"/><polyline points="167 215 165 215 165 213"/><line x1="165" x2="165" y1="209.1" y2="164" stroke-dasharray="3.9231,3.9231"/></g></g><g id="LWPOLYLINE_4_" opacity=".85"><rect x="165" y="220" width="65" height="55" fill="#B3B3B3"/><g fill="none" stroke="#000" stroke-linecap="round" stroke-linejoin="round" stroke-width=".5"><polyline points="165 222 165 220 167 220"/><line x1="171.1" x2="226" y1="220" y2="220" stroke-dasharray="4.0667,4.0667"/><polyline points="228 220 230 220 230 222"/><line x1="230" x2="230" y1="225.9" y2="271" stroke-dasharray="3.9231,3.9231"/><polyline points="230 273 230 275 228 275"/><line x1="223.9" x2="169" y1="275" y2="275" stroke-dasharray="4.0667,4.0667"/><polyline points="167 275 165 275 165 273"/><line x1="165" x2="165" y1="269.1" y2="224" stroke-dasharray="3.9231,3.9231"/></g></g><g id="LWPOLYLINE_5_" opacity=".85"><polygon points="20 70 40 70 40 285 20 285 20 183.8 28.6 180.6 11.4 174.4 20 171.3" fill="#B3B3B3"/><g fill="none" stroke="#000" stroke-linecap="round" stroke-linejoin="round" stroke-width=".5"><polyline points="20 72 20 70 22 70"/><line x1="25.2" x2="36.4" y1="70" y2="70" stroke-dasharray="3.2,3.2"/><polyline points="38 70 40 70 40 72"/><line x1="40" x2="40" y1="76" y2="281" stroke-dasharray="3.9811,3.9811"/><polyline points="40 283 40 285 38 285"/><line x1="34.8" x2="23.6" y1="285" y2="285" stroke-dasharray="3.2,3.2"/><polyline points="22 285 20 285 20 283"/><line x1="20" x2="20" y1="279.1" y2="187.7" stroke-dasharray="3.89,3.89"/><polyline points="20 185.8 20 183.8 21.9 183.1"/><polyline points="26.7 181.3 28.6 180.6 26.7 179.9"/><line x1="22.2" x2="15.5" y1="178.3" y2="175.9" stroke-dasharray="4.7579,4.7579"/><polyline points="13.3 175.1 11.4 174.4 13.3 173.7"/><polyline points="18.1 171.9 20 171.3 20 169.3"/><line x1="20" x2="20" y1="165.4" y2="73.9" stroke-dasharray="3.89,3.89"/></g></g><g id="LWPOLYLINE_6_" opacity=".85"><rect x="45" y="70" width="85" height="215" fill="#B3B3B3"/><g fill="none" stroke="#000" stroke-linecap="round" stroke-linejoin="round" stroke-width=".5"><polyline points="45 72 45 70 47 70"/><line x1="50.9" x2="126.1" y1="70" y2="70" stroke-dasharray="3.8571,3.8571"/><polyline points="128 70 130 70 130 72"/><line x1="130" x2="130" y1="76" y2="281" stroke-dasharray="3.9811,3.9811"/><polyline points="130 283 130 285 128 285"/><line x1="124.1" x2="48.9" y1="285" y2="285" stroke-dasharray="3.8571,3.8571"/><polyline points="47 285 45 285 45 283"/><line x1="45" x2="45" y1="279" y2="74" stroke-dasharray="3.9811,3.9811"/></g></g><g id="LWPOLYLINE_8_" opacity=".85"><rect x="270" y="171.3" width="60" height="10" fill="#B3B3B3"/><g fill="none" stroke="#000" stroke-linecap="round" stroke-linejoin="round" stroke-width=".5"><polyline points="270 173.3 270 171.3 272 171.3"/><line x1="275.7" x2="326.1" y1="171.3" y2="171.3" stroke-dasharray="3.7333,3.7333"/><polyline points="328 171.3 330 171.3 330 173.3"/><line x1="330" x2="330" y1="175.3" y2="178.3" stroke-dasharray="2,2"/><polyline points="330 179.3 330 181.3 328 181.3"/><line x1="324.3" x2="273.9" y1="181.3" y2="181.3" stroke-dasharray="3.7333,3.7333"/><polyline points="272 181.3 270 181.3 270 179.3"/><line x1="270" x2="270" y1="177.3" y2="174.3" stroke-dasharray="2,2"/></g></g><g id="LWPOLYLINE_9_" opacity=".85"><rect x="270" y="183.8" width="60" height="10" fill="#B3B3B3"/><g fill="none" stroke="#000" stroke-linecap="round" stroke-linejoin="round" stroke-width=".5"><polyline points="270 185.8 270 183.8 272 183.8"/><line x1="275.7" x2="326.1" y1="183.8" y2="183.8" stroke-dasharray="3.7333,3.7333"/><polyline points="328 183.8 330 183.8 330 185.8"/><line x1="330" x2="330" y1="187.8" y2="190.8" stroke-dasharray="2,2"/><polyline points="330 191.8 330 193.8 328 193.8"/><line x1="324.3" x2="273.9" y1="193.8" y2="193.8" stroke-dasharray="3.7333,3.7333"/><polyline points="272 193.8 270 193.8 270 191.8"/><line x1="270" x2="270" y1="189.8" y2="186.8" stroke-dasharray="2,2"/></g></g><g id="LWPOLYLINE_10_" opacity=".85"><rect x="270" y="196.3" width="60" height="10" fill="#B3B3B3"/><g fill="none" stroke="#000" stroke-linecap="round" stroke-linejoin="round" stroke-width=".5"><polyline points="270 198.3 270 196.3 272 196.3"/><line x1="275.7" x2="326.1" y1="196.3" y2="196.3" stroke-dasharray="3.7333,3.7333"/><polyline points="328 196.3 330 196.3 330 198.3"/><line x1="330" x2="330" y1="200.3" y2="203.3" stroke-dasharray="2,2"/><polyline points="330 204.3 330 206.3 328 206.3"/><line x1="324.3" x2="273.9" y1="206.3" y2="206.3" stroke-dasharray="3.7333,3.7333"/><polyline points="272 206.3 270 206.3 270 204.3"/><line x1="270" x2="270" y1="202.3" y2="199.3" stroke-dasharray="2,2"/></g></g><g id="LWPOLYLINE_11_" opacity=".85"><rect x="270" y="208.8" width="60" height="10" fill="#B3B3B3"/><g fill="none" stroke="#000" stroke-linecap="round" stroke-linejoin="round" stroke-width=".5"><polyline points="270 210.8 270 208.8 272 208.8"/><line x1="275.7" x2="326.1" y1="208.8" y2="208.8" stroke-dasharray="3.7333,3.7333"/><polyline points="328 208.8 330 208.8 330 210.8"/><line x1="330" x2="330" y1="212.8" y2="215.8" stroke-dasharray="2,2"/><polyline points="330 216.8 330 218.8 328 218.8"/><line x1="324.3" x2="273.9" y1="218.8" y2="218.8" stroke-dasharray="3.7333,3.7333"/><polyline points="272 218.8 270 218.8 270 216.8"/><line x1="270" x2="270" y1="214.8" y2="211.8" stroke-dasharray="2,2"/></g></g><g id="LWPOLYLINE_14_" opacity=".85"><rect x="270" y="93.8" width="60" height="10" fill="#B3B3B3"/><g fill="none" stroke="#000" stroke-linecap="round" stroke-linejoin="round" stroke-width=".5"><path d="m270 95.8v-2h2"/><line x1="275.7" x2="326.1" y1="93.8" y2="93.8" stroke-dasharray="3.7333,3.7333"/><polyline points="328 93.8 330 93.8 330 95.8"/><line x1="330" x2="330" y1="97.8" y2="100.8" stroke-dasharray="2,2"/><polyline points="330 101.8 330 103.8 328 103.8"/><line x1="324.3" x2="273.9" y1="103.8" y2="103.8" stroke-dasharray="3.7333,3.7333"/><path d="m272 103.8h-2v-2"/><path d="m270 99.7v-3" stroke-dasharray="2,2"/></g></g><g id="LWPOLYLINE_15_" opacity=".85"><rect x="270" y="106.3" width="60" height="10" fill="#B3B3B3"/><g fill="none" stroke="#000" stroke-linecap="round" stroke-linejoin="round" stroke-width=".5"><polyline points="270 108.3 270 106.3 272 106.3"/><line x1="275.7" x2="326.1" y1="106.3" y2="106.3" stroke-dasharray="3.7333,3.7333"/><polyline points="328 106.3 330 106.3 330 108.3"/><line x1="330" x2="330" y1="110.3" y2="113.3" stroke-dasharray="2,2"/><polyline points="330 114.3 330 116.3 328 116.3"/><line x1="324.3" x2="273.9" y1="116.3" y2="116.3" stroke-dasharray="3.7333,3.7333"/><polyline points="272 116.3 270 116.3 270 114.3"/><line x1="270" x2="270" y1="112.3" y2="109.3" stroke-dasharray="2,2"/></g></g><g id="LWPOLYLINE_16_" opacity=".85"><rect x="270" y="118.8" width="60" height="10" fill="#B3B3B3"/><g fill="none" stroke="#000" stroke-linecap="round" stroke-linejoin="round" stroke-width=".5"><polyline points="270 120.8 270 118.8 272 118.8"/><line x1="275.7" x2="326.1" y1="118.8" y2="118.8" stroke-dasharray="3.7333,3.7333"/><polyline points="328 118.8 330 118.8 330 120.8"/><line x1="330" x2="330" y1="122.8" y2="125.8" stroke-dasharray="2,2"/><polyline points="330 126.8 330 128.8 328 128.8"/><line x1="324.3" x2="273.9" y1="128.8" y2="128.8" stroke-dasharray="3.7333,3.7333"/><polyline points="272 128.8 270 128.8 270 126.8"/><line x1="270" x2="270" y1="124.8" y2="121.8" stroke-dasharray="2,2"/></g></g><g id="LWPOLYLINE_17_" opacity=".85"><rect x="270" y="131.3" width="60" height="10" fill="#B3B3B3"/><g fill="none" stroke="#000" stroke-linecap="round" stroke-linejoin="round" stroke-width=".5"><polyline points="270 133.3 270 131.3 272 131.3"/><line x1="275.7" x2="326.1" y1="131.3" y2="131.3" stroke-dasharray="3.7333,3.7333"/><polyline points="328 131.3 330 131.3 330 133.3"/><line x1="330" x2="330" y1="135.3" y2="138.3" stroke-dasharray="2,2"/><polyline points="330 139.3 330 141.3 328 141.3"/><line x1="324.3" x2="273.9" y1="141.3" y2="141.3" stroke-dasharray="3.7333,3.7333"/><polyline points="272 141.3 270 141.3 270 139.3"/><line x1="270" x2="270" y1="137.3" y2="134.3" stroke-dasharray="2,2"/></g></g><g id="LWPOLYLINE_20_" opacity=".85"><rect x="270" y="248.8" width="60" height="10" fill="#B3B3B3"/><g fill="none" stroke="#000" stroke-linecap="round" stroke-linejoin="round" stroke-width=".5"><polyline points="270 250.8 270 248.8 272 248.8"/><line x1="275.7" x2="326.1" y1="248.8" y2="248.8" stroke-dasharray="3.7333,3.7333"/><polyline points="328 248.8 330 248.8 330 250.8"/><line x1="330" x2="330" y1="252.8" y2="255.8" stroke-dasharray="2,2"/><polyline points="330 256.8 330 258.8 328 258.8"/><line x1="324.3" x2="273.9" y1="258.8" y2="258.8" stroke-dasharray="3.7333,3.7333"/><polyline points="272 258.8 270 258.8 270 256.8"/><line x1="270" x2="270" y1="254.8" y2="251.8" stroke-dasharray="2,2"/></g></g><g id="LWPOLYLINE_21_" opacity=".85"><rect x="270" y="261.3" width="60" height="10" fill="#B3B3B3"/><g fill="none" stroke="#000" stroke-linecap="round" stroke-linejoin="round" stroke-width=".5"><polyline points="270 263.3 270 261.3 272 261.3"/><line x1="275.7" x2="326.1" y1="261.3" y2="261.3" stroke-dasharray="3.7333,3.7333"/><polyline points="328 261.3 330 261.3 330 263.3"/><line x1="330" x2="330" y1="265.3" y2="268.3" stroke-dasharray="2,2"/><polyline points="330 269.3 330 271.3 328 271.3"/><line x1="324.3" x2="273.9" y1="271.3" y2="271.3" stroke-dasharray="3.7333,3.7333"/><polyline points="272 271.3 270 271.3 270 269.3"/><line x1="270" x2="270" y1="267.3" y2="264.3" stroke-dasharray="2,2"/></g></g><g id="LWPOLYLINE_22_" opacity=".85"><rect x="270" y="273.8" width="60" height="10" fill="#B3B3B3"/><g fill="none" stroke="#000" stroke-linecap="round" stroke-linejoin="round" stroke-width=".5"><polyline points="270 275.8 270 273.8 272 273.8"/><line x1="275.7" x2="326.1" y1="273.8" y2="273.8" stroke-dasharray="3.7333,3.7333"/><polyline points="328 273.8 330 273.8 330 275.8"/><line x1="330" x2="330" y1="277.8" y2="280.8" stroke-dasharray="2,2"/><polyline points="330 281.8 330 283.8 328 283.8"/><line x1="324.3" x2="273.9" y1="283.8" y2="283.8" stroke-dasharray="3.7333,3.7333"/><polyline points="272 283.8 270 283.8 270 281.8"/><line x1="270" x2="270" y1="279.8" y2="276.8" stroke-dasharray="2,2"/></g></g><g id="LWPOLYLINE_23_" opacity=".85"><rect x="270" y="286.3" width="60" height="10" fill="#B3B3B3"/><g fill="none" stroke="#000" stroke-linecap="round" stroke-linejoin="round" stroke-width=".5"><polyline points="270 288.3 270 286.3 272 286.3"/><line x1="275.7" x2="326.1" y1="286.3" y2="286.3" stroke-dasharray="3.7333,3.7333"/><polyline points="328 286.3 330 286.3 330 288.3"/><line x1="330" x2="330" y1="290.3" y2="293.3" stroke-dasharray="2,2"/><polyline points="330 294.3 330 296.3 328 296.3"/><line x1="324.3" x2="273.9" y1="296.3" y2="296.3" stroke-dasharray="3.7333,3.7333"/><polyline points="272 296.3 270 296.3 270 294.3"/><line x1="270" x2="270" y1="292.3" y2="289.3" stroke-dasharray="2,2"/></g></g><g id="LWPOLYLINE_26_"><rect x="355" y="248.8" width="85" height="10" fill="#FFB866"/></g><g id="LWPOLYLINE_27_"><rect x="355" y="261.3" width="85" height="10" fill="#FFB866"/></g><g id="LWPOLYLINE_28_"><rect x="355" y="273.8" width="85" height="10" fill="#FFB866"/></g><g id="LWPOLYLINE_29_"><rect x="355" y="286.3" width="85" height="10" fill="#FFB866"/></g><g id="LWPOLYLINE_30_"><rect x="355" y="171.3" width="85" height="10" fill="#FFB866"/></g><g id="LWPOLYLINE_31_"><rect x="355" y="183.8" width="85" height="10" fill="#FFB866"/></g><g id="LWPOLYLINE_32_"><rect x="355" y="196.3" width="85" height="10" fill="#FFB866"/></g><g id="LWPOLYLINE_33_"><rect x="355" y="208.8" width="85" height="10" fill="#FFB866"/></g><g id="LWPOLYLINE_34_"><rect x="355" y="93.8" width="85" height="10" fill="#FFB866"/></g><g id="LWPOLYLINE_35_"><rect x="355" y="106.3" width="85" height="10" fill="#FFB866"/></g><g id="LWPOLYLINE_36_"><rect x="355" y="118.8" width="85" height="10" fill="#FFB866"/></g><g id="LWPOLYLINE_37_"><rect x="355" y="131.3" width="85" height="10" fill="#FFB866"/></g><g id="LWPOLYLINE_51_"><rect width="460" height="25" fill="#B35F00"/></g><polyline points="20 40 20 171.3 11.4 174.4 28.6 180.6 20 183.8 20 295" fill="none" stroke="#fff" stroke-linecap="round" stroke-miterlimit="10"/></g><g id="Arrows"><g id="LINE"><line x1="230" x2="260.5" y1="187.5" y2="187.5" fill="none" stroke="#fff" stroke-linecap="round" stroke-linejoin="round" stroke-width=".75"/><polygon points="258.4 190.3 259.6 187.5 258.4 184.7 265 187.5" fill="#fff"/></g><g id="LINE_1_"><line x1="130" x2="150.5" y1="177.5" y2="177.5" fill="none" stroke="#fff" stroke-linecap="round" stroke-linejoin="round" stroke-width=".75"/><polygon points="148.4 180.3 149.6 177.5 148.4 174.7 155 177.5" fill="#fff"/></g><g id="SPLINE"><path d="m260.5 110.4c-13.2 2.7-14.7 17.1-30.5 17.1" fill="none" stroke="#fff" stroke-linecap="round" stroke-linejoin="round" stroke-width=".75"/><polygon points="258.1 108 259.6 110.6 258.8 113.5 265 110" fill="#fff"/></g><g id="SPLINE_1_"><path d="m260.5 264.6c-13.2-2.7-14.7-17.1-30.5-17.1" fill="none" stroke="#fff" stroke-linecap="round" stroke-linejoin="round" stroke-width=".75"/><polygon points="258.8 261.5 259.6 264.4 258.1 267 265 265" fill="#fff"/></g><g id="LWPOLYLINE_38_"><line x1="330" x2="350.5" y1="98.8" y2="98.8" fill="none" stroke="#fff" stroke-linecap="round" stroke-linejoin="round" stroke-width=".75"/><polygon points="348.4 101.5 349.6 98.8 348.4 96 355 98.8" fill="#fff"/></g><g id="LWPOLYLINE_39_"><line x1="330" x2="350.5" y1="111.3" y2="111.3" fill="none" stroke="#fff" stroke-linecap="round" stroke-linejoin="round" stroke-width=".75"/><polygon points="348.4 114 349.6 111.3 348.4 108.5 355 111.3" fill="#fff"/></g><g id="LWPOLYLINE_40_"><line x1="330" x2="350.5" y1="123.8" y2="123.8" fill="none" stroke="#fff" stroke-linecap="round" stroke-linejoin="round" stroke-width=".75"/><polygon points="348.4 126.5 349.6 123.8 348.4 121 355 123.8" fill="#fff"/></g><g id="LWPOLYLINE_41_"><line x1="330" x2="350.5" y1="136.3" y2="136.3" fill="none" stroke="#fff" stroke-linecap="round" stroke-linejoin="round" stroke-width=".75"/><polygon points="348.4 139 349.6 136.3 348.4 133.5 355 136.3" fill="#fff"/></g><g id="LWPOLYLINE_42_"><line x1="330" x2="350.5" y1="176.3" y2="176.3" fill="none" stroke="#fff" stroke-linecap="round" stroke-linejoin="round" stroke-width=".75"/><polygon points="348.4 179 349.6 176.3 348.4 173.5 355 176.3" fill="#fff"/></g><g id="LWPOLYLINE_43_"><line x1="330" x2="350.5" y1="188.8" y2="188.8" fill="none" stroke="#fff" stroke-linecap="round" stroke-linejoin="round" stroke-width=".75"/><polygon points="348.4 191.5 349.6 188.8 348.4 186 355 188.8" fill="#fff"/></g><g id="LWPOLYLINE_44_"><line x1="330" x2="350.5" y1="201.3" y2="201.3" fill="none" stroke="#fff" stroke-linecap="round" stroke-linejoin="round" stroke-width=".75"/><polygon points="348.4 204 349.6 201.3 348.4 198.5 355 201.3" fill="#fff"/></g><g id="LWPOLYLINE_45_"><line x1="330" x2="350.5" y1="213.8" y2="213.8" fill="none" stroke="#fff" stroke-linecap="round" stroke-linejoin="round" stroke-width=".75"/><polygon points="348.4 216.5 349.6 213.8 348.4 211 355 213.8" fill="#fff"/></g><g id="LWPOLYLINE_46_"><line x1="330" x2="350.5" y1="253.8" y2="253.8" fill="none" stroke="#fff" stroke-linecap="round" stroke-linejoin="round" stroke-width=".75"/><polygon points="348.4 256.5 349.6 253.8 348.4 251 355 253.8" fill="#fff"/></g><g id="LWPOLYLINE_47_"><line x1="330" x2="350.5" y1="266.3" y2="266.3" fill="none" stroke="#fff" stroke-linecap="round" stroke-linejoin="round" stroke-width=".75"/><polygon points="348.4 269 349.6 266.3 348.4 263.5 355 266.3" fill="#fff"/></g><g id="LWPOLYLINE_48_"><line x1="330" x2="350.5" y1="278.8" y2="278.8" fill="none" stroke="#fff" stroke-linecap="round" stroke-linejoin="round" stroke-width=".75"/><polygon points="348.4 281.5 349.6 278.8 348.4 276 355 278.8" fill="#fff"/></g><g id="LWPOLYLINE_49_"><line x1="330" x2="350.5" y1="291.3" y2="291.3" fill="none" stroke="#fff" stroke-linecap="round" stroke-linejoin="round" stroke-width=".75"/><polygon points="348.4 294 349.6 291.3 348.4 288.5 355 291.3" fill="#fff"/></g></g><g id="Text"><g id="MTEXT"><text transform="translate(169.68 110.08)" font-family="Arial" font-weight="bold" font-variant="small-caps" font-size="7px">Shared Pointer</text>
</g><g id="MTEXT_1_"><text transform="translate(164.91 95.085)" font-size="7px"><tspan x="0" y="0" font-family="Arial" font-weight="bold" font-variant="small-caps">Vector</tspan><tspan x="25.4" y="0" font-family="Arial"> refPool</tspan></text>
</g><rect x="159.7" y="74" width="75.3" height="8.7" fill="none"/><text transform="translate(159.72 80.031)" font-size="7px"><tspan x="0" y="0" font-family="Arial" font-weight="bold" font-variant="small-caps">Cell</tspan><tspan x="16.3" y="0" font-family="Arial"> address </tspan><tspan x="45.1" y="-0.5" font-family="Arial">{</tspan><tspan x="47.4" y="0" font-family="Arial">0,2,80</tspan><tspan x="66.9" y="-0.5" font-family="Arial">}</tspan></text>
<g id="MTEXT_3_"><text transform="translate(169.68 170.08)" font-family="Arial" font-weight="bold" font-variant="small-caps" font-size="7px">Shared Pointer</text>
</g><g id="MTEXT_4_"><text transform="translate(169.68 230.08)" font-family="Arial" font-weight="bold" font-variant="small-caps" font-size="7px">Shared Pointer</text>
</g><rect x="24.9" y="49" width="105.1" height="17.3" fill="none"/><text transform="translate(24.91 55.031)" font-size="7px"><tspan x="0" y="0" font-family="Arial" font-weight="bold" font-variant="small-caps">Vector </tspan><tspan x="27.3" y="0" font-family="Arial">elem</tspan><tspan x="0" y="8.4" font-family="Arial">in grid 0, toposet 2</tspan></text>
<g id="MTEXT_6_"><text transform="translate(49.68 80.085)" font-family="Arial" font-weight="bold" font-variant="small-caps" font-size="7px">Shared Pointer</text>
</g><g id="MTEXT_7_"><text transform="translate(272.18 178.84)" font-family="Arial" font-weight="bold" font-variant="small-caps" font-size="7px">Shared Pointer</text>
</g><g id="MTEXT_8_"><text transform="translate(272.18 191.34)" font-family="Arial" font-weight="bold" font-variant="small-caps" font-size="7px">Shared Pointer</text>
</g><g id="MTEXT_9_"><text transform="translate(272.18 203.84)" font-family="Arial" font-weight="bold" font-variant="small-caps" font-size="7px">Shared Pointer</text>
</g><g id="MTEXT_10_"><text transform="translate(272.18 216.34)" font-family="Arial" font-weight="bold" font-variant="small-caps" font-size="7px">Shared Pointer</text>
</g><g id="MTEXT_11_"><text transform="translate(269.91 166.33)" font-family="Arial" font-weight="bold" font-variant="small-caps" font-size="7px">Vector</text>
</g><g id="MTEXT_12_"><text transform="translate(272.18 101.34)" font-family="Arial" font-weight="bold" font-variant="small-caps" font-size="7px">Shared Pointer</text>
</g><g id="MTEXT_13_"><text transform="translate(272.18 113.84)" font-family="Arial" font-weight="bold" font-variant="small-caps" font-size="7px">Shared Pointer</text>
</g><g id="MTEXT_14_"><text transform="translate(272.18 126.34)" font-family="Arial" font-weight="bold" font-variant="small-caps" font-size="7px">Shared Pointer</text>
</g><g id="MTEXT_15_"><text transform="translate(272.18 138.84)" font-family="Arial" font-weight="bold" font-variant="small-caps" font-size="7px">Shared Pointer</text>
</g><g id="MTEXT_16_"><text transform="translate(269.91 88.83)" font-family="Arial" font-weight="bold" font-variant="small-caps" font-size="7px">Vector</text>
</g><g id="MTEXT_17_"><text transform="translate(272.18 256.34)" font-family="Arial" font-weight="bold" font-variant="small-caps" font-size="7px">Shared Pointer</text>
</g><g id="MTEXT_18_"><text transform="translate(272.18 268.84)" font-family="Arial" font-weight="bold" font-variant="small-caps" font-size="7px">Shared Pointer</text>
</g><g id="MTEXT_19_"><text transform="translate(272.18 281.34)" font-family="Arial" font-weight="bold" font-variant="small-caps" font-size="7px">Shared Pointer</text>
</g><g id="MTEXT_20_"><text transform="translate(272.18 293.84)" font-family="Arial" font-weight="bold" font-variant="small-caps" font-size="7px">Shared Pointer</text>
</g><g id="MTEXT_21_"><text transform="translate(269.91 244.83)" font-family="Arial" font-weight="bold" font-variant="small-caps" font-size="7px">Vector</text>
</g><g id="MTEXT_22_"><text transform="translate(357.04 256.25)" font-family="Arial" font-weight="bold" font-variant="small-caps" font-size="7px">Null</text>
</g><g id="MTEXT_24_"><text transform="translate(357.04 293.75)" font-family="Arial" font-weight="bold" font-variant="small-caps" font-size="7px">Null</text>
</g><rect x="357.2" y="275.3" width="82.8" height="8.4" fill="none"/><text transform="translate(357.22 281.28)" font-size="7px"><tspan x="0" y="0" font-family="Arial" font-weight="bold" font-variant="small-caps">Cell </tspan><tspan x="18.3" y="0" font-family="Arial">address </tspan><tspan x="45.1" y="-0.5" font-family="Arial">{</tspan><tspan x="47.4" y="0" font-family="Arial">0,2,79</tspan><tspan x="66.9" y="-0.5" font-family="Arial">}</tspan></text>
<rect x="357.2" y="262.9" width="82.8" height="8.4" fill="none"/><text transform="translate(357.22 268.9)" font-size="7px"><tspan x="0" y="0" font-family="Arial" font-weight="bold" font-variant="small-caps">Cell </tspan><tspan x="18.3" y="0" font-family="Arial">address </tspan><tspan x="45.1" y="-0.5" font-family="Arial">{</tspan><tspan x="47.4" y="0" font-family="Arial">0,2,71</tspan><tspan x="66.9" y="-0.5" font-family="Arial">}</tspan><tspan x="69.2" y="0" font-family="Arial">)</tspan></text>
<rect x="357.2" y="210.4" width="82.8" height="8.4" fill="none"/><text transform="translate(357.22 216.4)" font-size="7px"><tspan x="0" y="0" font-family="Arial" font-weight="bold" font-variant="small-caps">Edge </tspan><tspan x="19.5" y="0" font-family="Arial">address </tspan><tspan x="46.3" y="-0.5" font-family="Arial">{</tspan><tspan x="48.7" y="0" font-family="Arial">0,1,89</tspan><tspan x="68.1" y="-0.5" font-family="Arial">}</tspan></text>
<rect x="357.2" y="197.9" width="82.8" height="8.4" fill="none"/><text transform="translate(357.22 203.9)" font-size="7px"><tspan x="0" y="0" font-family="Arial" font-weight="bold" font-variant="small-caps">Edge </tspan><tspan x="19.5" y="0" font-family="Arial">address </tspan><tspan x="46.3" y="-0.5" font-family="Arial">{</tspan><tspan x="48.7" y="0" font-family="Arial">0,1,178</tspan><tspan x="72" y="-0.5" font-family="Arial">}</tspan></text>
<rect x="357.2" y="185.4" width="82.8" height="8.4" fill="none"/><text transform="translate(357.22 191.4)" font-size="7px"><tspan x="0" y="0" font-family="Arial" font-weight="bold" font-variant="small-caps">Edge </tspan><tspan x="19.5" y="0" font-family="Arial">address </tspan><tspan x="46.3" y="-0.5" font-family="Arial">{</tspan><tspan x="48.7" y="0" font-family="Arial">0,1,80</tspan><tspan x="68.1" y="-0.5" font-family="Arial">}</tspan></text>
<rect x="357.2" y="172.9" width="82.8" height="8.4" fill="none"/><text transform="translate(357.22 178.9)" font-size="7px"><tspan x="0" y="0" font-family="Arial" font-weight="bold" font-variant="small-caps">Edge </tspan><tspan x="19.5" y="0" font-family="Arial">address </tspan><tspan x="46.3" y="-0.5" font-family="Arial">{</tspan><tspan x="48.7" y="0" font-family="Arial">0,1,179</tspan><tspan x="72" y="-0.5" font-family="Arial">}</tspan></text>
<rect x="357.2" y="132.9" width="82.8" height="8.4" fill="none"/><text transform="translate(357.22 138.9)" font-size="7px"><tspan x="0" y="0" font-family="Arial" font-weight="bold" font-variant="small-caps">Vert </tspan><tspan x="18.5" y="0" font-family="Arial">address </tspan><tspan x="45.3" y="-0.5" font-family="Arial">{</tspan><tspan x="47.7" y="0" font-family="Arial">0,0,99</tspan><tspan x="67.1" y="-0.5" font-family="Arial">}</tspan></text>
<rect x="357.2" y="120.4" width="82.8" height="8.4" fill="none"/><text transform="translate(357.22 126.4)" font-size="7px"><tspan x="0" y="0" font-family="Arial" font-weight="bold" font-variant="small-caps">Vert </tspan><tspan x="18.5" y="0" font-family="Arial">address </tspan><tspan x="45.3" y="-0.5" font-family="Arial">{</tspan><tspan x="47.7" y="0" font-family="Arial">0,0,98</tspan><tspan x="67.1" y="-0.5" font-family="Arial">}</tspan></text>
<rect x="357.2" y="107.9" width="82.8" height="8.4" fill="none"/><text transform="translate(357.22 113.9)" font-size="7px"><tspan x="0" y="0" font-family="Arial" font-weight="bold" font-variant="small-caps">Vert </tspan><tspan x="18.5" y="0" font-family="Arial">address </tspan><tspan x="45.3" y="-0.5" font-family="Arial">{</tspan><tspan x="47.7" y="0" font-family="Arial">0,0,88</tspan><tspan x="67.1" y="-0.5" font-family="Arial">}</tspan></text>
<rect x="357.2" y="95.4" width="82.8" height="8.4" fill="none"/><text transform="translate(357.22 101.4)" font-size="7px"><tspan x="0" y="0" font-family="Arial" font-weight="bold" font-variant="small-caps">Vert</tspan><tspan x="16.6" y="0" font-family="Arial"> address </tspan><tspan x="45.3" y="-0.5" font-family="Arial">{</tspan><tspan x="47.7" y="0" font-family="Arial">0,0,89</tspan><tspan x="67.1" y="-0.5" font-family="Arial">}</tspan></text>
<g id="MTEXT_34_"><text transform="translate(5.6649 16.085)" font-family="Arial" font-size="12px">Option 1</text>
</g></g></svg>
