<?xml version="1.0" encoding="utf-8"?>
<!-- Generator: Adobe Illustrator 21.1.0, SVG Export Plug-In . SVG Version: 6.00 Build 0)  -->
<svg version="1.1" id="Layer_1" xmlns="http://www.w3.org/2000/svg" xmlns:xlink="http://www.w3.org/1999/xlink" x="0px" y="0px"
	 viewBox="0 0 465 695" enable-background="new 0 0 465 695" xml:space="preserve">
<g id="Underlay">
	<polygon fill="#000000" points="465,695 0,695 0,35 35,35 35,0 465,0 	"/>
</g>
<g id="_x30_">
	<g id="LWPOLYLINE_31_">
		<polygon fill="#B3B3B3" points="195,595 245,585 245,545 145,545 145,585 		"/>
	</g>
	<g id="LWPOLYLINE_32_">
		<polygon fill="#B3B3B3" points="305,595 355,585 355,545 255,545 255,585 		"/>
	</g>
	<g id="LWPOLYLINE_33_">
		<polygon fill="#B3B3B3" points="415,595 465,585 465,545 365,545 365,585 		"/>
	</g>
	<g id="LWPOLYLINE_28_">
		<polygon fill="#B3B3B3" points="305,445 355,435 355,395 255,395 255,435 		"/>
	</g>
	<g id="LWPOLYLINE_29_">
		<polygon fill="#B3B3B3" points="415,445 465,435 465,395 365,395 365,435 		"/>
	</g>
	<g id="LWPOLYLINE_27_">
		<polygon fill="#B3B3B3" points="195,445 245,435 245,395 145,395 145,435 		"/>
	</g>
	<g id="LWPOLYLINE_64_">
		<polygon fill="#FFB866" points="195,295 245,285 245,257 145,257 145,285 		"/>
	</g>
	<g id="LWPOLYLINE_42_">
		<rect x="145" y="35" fill="#FFDBB3" width="100" height="100"/>
	</g>
	<g id="LWPOLYLINE_35_">
		<rect x="145" y="595" fill="#D9D9D9" width="100" height="100"/>
	</g>
	<g id="LWPOLYLINE_36_">
		<rect x="255" y="595" fill="#D9D9D9" width="100" height="100"/>
	</g>
	<g id="LWPOLYLINE_37_">
		<rect x="365" y="595" fill="#D9D9D9" width="100" height="100"/>
	</g>
	<g id="LWPOLYLINE_17_">
		<rect x="145" y="445" fill="#D9D9D9" width="100" height="100"/>
	</g>
	<g id="LWPOLYLINE_16_">
		<rect x="255" y="445" fill="#D9D9D9" width="100" height="100"/>
	</g>
	<g id="LWPOLYLINE_15_">
		<rect x="365" y="445" fill="#D9D9D9" width="100" height="100"/>
	</g>
	<g id="LWPOLYLINE_20_">
		<rect x="145" y="295" fill="#D9D9D9" width="100" height="100"/>
	</g>
	<g id="LWPOLYLINE_19_">
		<rect x="255" y="295" fill="#D9D9D9" width="100" height="100"/>
	</g>
	<g id="LWPOLYLINE_18_">
		<rect x="365" y="295" fill="#D9D9D9" width="100" height="100"/>
	</g>
	<g id="LWPOLYLINE">
		<rect y="595" fill="#FFB866" width="25" height="100"/>
	</g>
	<g id="LWPOLYLINE_1_">
		<rect y="145" fill="#FFB866" width="25" height="140"/>
	</g>
	<g id="LWPOLYLINE_2_">
		<rect x="145" fill="#FFB866" width="100" height="25"/>
	</g>
	<g id="LWPOLYLINE_3_">
		<rect x="255" fill="#FFB866" width="100" height="25"/>
	</g>
	<g id="LWPOLYLINE_4_">
		<rect x="365" fill="#FFB866" width="100" height="25"/>
	</g>
	<g id="LWPOLYLINE_5_">
		<rect x="35" fill="#DD7700" width="100" height="25"/>
	</g>
	<g id="LWPOLYLINE_6_">
		<rect y="35" fill="#DD7700" width="25" height="100"/>
	</g>
	<g id="LWPOLYLINE_39_">
		<rect y="295" fill="#FFB866" width="25" height="140"/>
	</g>
	<g id="LWPOLYLINE_40_">
		<rect y="445" fill="#FFB866" width="25" height="140"/>
	</g>
	<g id="LWPOLYLINE_26_">
		<polygon fill="#B3B3B3" points="85,295 135,285 135,245 35,245 35,285 		"/>
	</g>
	<g id="LWPOLYLINE_8_">
		<rect x="255" y="35" fill="#FFDBB3" width="100" height="100"/>
	</g>
	<g id="LWPOLYLINE_9_">
		<rect x="365" y="35" fill="#FFDBB3" width="100" height="100"/>
	</g>
	<g id="LWPOLYLINE_13_">
		<rect x="145" y="145" fill="#FFDBB3" width="100" height="100"/>
	</g>
	<g id="LWPOLYLINE_21_">
		<rect x="35" y="445" fill="#FFDBB3" width="100" height="100"/>
	</g>
	<g id="LWPOLYLINE_22_">
		<rect x="35" y="295" fill="#FFDBB3" width="100" height="100"/>
	</g>
	<g id="LWPOLYLINE_12_">
		<rect x="255" y="145" fill="#FFDBB3" width="100" height="100"/>
	</g>
	<g id="LWPOLYLINE_11_">
		<rect x="365" y="145" fill="#FFDBB3" width="100" height="100"/>
	</g>
	<g id="LWPOLYLINE_10_">
		<rect x="35" y="35" fill="#D9D9D9" width="100" height="100"/>
	</g>
	<g id="LWPOLYLINE_14_">
		<rect x="35" y="145" fill="#D9D9D9" width="100" height="100"/>
	</g>
	<g id="LWPOLYLINE_38_">
		<rect x="35" y="595" fill="#FFDBB3" width="100" height="100"/>
	</g>
	<g>
		<g id="LWPOLYLINE_41_">
			<rect x="150" y="52.5" fill="#FFE9CF" width="90" height="57.3"/>
		</g>
		<g id="LWPOLYLINE_43_">
			<rect x="150" y="40" fill="#FFB866" width="90" height="12.5"/>
		</g>
	</g>
	<g>
		<g id="LWPOLYLINE_47_">
			<rect x="150" y="162.5" fill="#FFE9CF" width="90" height="30.3"/>
		</g>
		<g id="LWPOLYLINE_46_">
			<rect x="150" y="150" fill="#FFB866" width="90" height="12.5"/>
		</g>
	</g>
	<g>
		<g id="LWPOLYLINE_57_">
			<rect x="40" y="462.5" fill="#FFE9CF" width="90" height="30.3"/>
		</g>
		<g id="LWPOLYLINE_56_">
			<rect x="40" y="450" fill="#FFB866" width="90" height="12.5"/>
		</g>
	</g>
	<g>
		<g id="LWPOLYLINE_59_">
			<rect x="40" y="612.5" fill="#FFE9CF" width="90" height="30.3"/>
		</g>
		<g id="LWPOLYLINE_58_">
			<rect x="40" y="600" fill="#FFB866" width="90" height="12.5"/>
		</g>
	</g>
	<g>
		<g id="LWPOLYLINE_61_">
			<rect x="40" y="660.3" fill="#FFE9CF" width="90" height="30.3"/>
		</g>
		<g id="LWPOLYLINE_60_">
			<rect x="40" y="647.8" fill="#FFB866" width="90" height="12.5"/>
		</g>
	</g>
	<g>
		<g id="LWPOLYLINE_55_">
			<rect x="370" y="162.5" fill="#FFE9CF" width="90" height="30.3"/>
		</g>
		<g id="LWPOLYLINE_54_">
			<rect x="370" y="150" fill="#FFB866" width="90" height="12.5"/>
		</g>
	</g>
	<g>
		<g id="LWPOLYLINE_51_">
			<rect x="260" y="162.5" fill="#FFE9CF" width="90" height="25"/>
		</g>
		<g id="LWPOLYLINE_50_">
			<rect x="260" y="150" fill="#FFB866" width="90" height="12.5"/>
		</g>
	</g>
	<g>
		<g id="LWPOLYLINE_53_">
			<rect x="260" y="204.3" fill="#FFE9CF" width="90" height="30.5"/>
		</g>
		<g id="LWPOLYLINE_52_">
			<rect x="260" y="191.8" fill="#FFB866" width="90" height="12.5"/>
		</g>
	</g>
	<g>
		<g id="LWPOLYLINE_49_">
			<rect x="150" y="210" fill="#FFE9CF" width="90" height="15.1"/>
		</g>
		<g id="LWPOLYLINE_48_">
			<rect x="150" y="197.5" fill="#FFB866" width="90" height="12.5"/>
		</g>
	</g>
	<g>
		<g id="LWPOLYLINE_45_">
			<rect x="260" y="52.5" fill="#FFE9CF" width="90" height="39.7"/>
		</g>
		<g id="LWPOLYLINE_7_">
			<rect x="260" y="40" fill="#FFB866" width="90" height="12.5"/>
		</g>
	</g>
	<g id="LWPOLYLINE_44_">
		<rect x="145" y="245" fill="#DD7700" width="100" height="12"/>
	</g>
	<g id="LWPOLYLINE_65_">
		<polygon fill="#FFB866" points="85,445 135,435 135,407 35,407 35,435 		"/>
	</g>
	<g id="LWPOLYLINE_63_">
		<rect x="35" y="395" fill="#DD7700" width="100" height="12"/>
	</g>
	<g id="LWPOLYLINE_25_">
		<polygon fill="#FFB866" points="85,595 135,585 135,557 35,557 35,585 		"/>
	</g>
	<g id="LWPOLYLINE_23_">
		<rect x="35" y="545" fill="#DD7700" width="100" height="12"/>
	</g>
	<g id="LWPOLYLINE_30_">
		<polygon fill="#FFB866" points="305,295 355,285 355,257 255,257 255,285 		"/>
	</g>
	<g id="LWPOLYLINE_24_">
		<rect x="255" y="245" fill="#DD7700" width="100" height="12"/>
	</g>
	<g id="LWPOLYLINE_62_">
		<polygon fill="#FFB866" points="415,295 465,285 465,257 365,257 365,285 		"/>
	</g>
	<g id="LWPOLYLINE_34_">
		<rect x="365" y="245" fill="#DD7700" width="100" height="12"/>
	</g>
</g>
<g id="Text">
	<g id="MTEXT">
		<text transform="matrix(-1.836970e-16 1 -1 -1.836970e-16 8.9648 616.9482)" font-family="Arial" font-variant="small-caps" font-weight="bold" font-size="12px">topology</text>
	</g>
	<g id="MTEXT_1_">
		<text transform="matrix(-1.836970e-16 1 -1 -1.836970e-16 8.9648 191.1521)" font-family="Arial" font-variant="small-caps" font-weight="bold" font-size="12px">element</text>
	</g>
	<g id="MTEXT_2_">
		<text transform="matrix(1 0 0 1 169.9805 15.0352)" font-family="Arial" font-variant="small-caps" font-weight="bold" font-size="12px">tt_logic</text>
	</g>
	<g id="MTEXT_3_">
		<text transform="matrix(1 0 0 1 264.699 15.035)" font-family="Arial" font-variant="small-caps" font-weight="bold" font-size="12px">tt_reference</text>
	</g>
	<g id="MTEXT_4_">
		<text transform="matrix(1 0 0 1 379.841 15.0352)" font-family="Arial" font-variant="small-caps" font-weight="bold" font-size="12px">tt_solution</text>
	</g>
	<g id="MTEXT_5_">
		<text transform="matrix(1 0 0 1 58.0734 15.0349)" font-family="Arial" font-variant="small-caps" font-weight="bold" font-size="12px">all types</text>
	</g>
	<g id="MTEXT_6_">
		<text transform="matrix(-1.836970e-16 1 -1 -1.836970e-16 8.9648 41.4532)" font-family="Arial" font-variant="small-caps" font-weight="bold" font-size="12px">all containers</text>
	</g>
	<g id="MTEXT_16_">
		<text transform="matrix(-1.836970e-16 1 -1 -1.836970e-16 8.9648 341.1552)" font-family="Arial" font-variant="small-caps" font-weight="bold" font-size="12px">toposet</text>
	</g>
	<g id="MTEXT_17_">
		<text transform="matrix(-1.836970e-16 1 -1 -1.836970e-16 8.9648 502.3584)" font-family="Arial" font-variant="small-caps" font-weight="bold" font-size="12px">grid</text>
	</g>
	<rect x="155" y="42" fill="none" width="80" height="8.4"/>
	<text transform="matrix(1 0 0 1 155 49.2014)" font-family="Arial" font-variant="small-caps" font-weight="bold" font-size="10px">Logic Counter </text>
	<rect x="155" y="57.5" fill="none" width="80" height="50.5"/>
	<text transform="matrix(1 0 0 1 155.0105 62.5118)" font-family="Arial" font-size="7px">A logic counter variable </text>
	<text transform="matrix(1 0 0 1 155.0105 70.9118)" font-family="Arial" font-size="7px">and methods to ensure </text>
	<text transform="matrix(1 0 0 1 155.0105 79.3118)" font-family="Arial" font-size="7px">that any logic module </text>
	<text transform="matrix(1 0 0 1 155.0105 87.7118)" font-family="Arial" font-size="7px">checks queued to run at </text>
	<text transform="matrix(1 0 0 1 155.0105 96.1118)" font-family="Arial" font-size="7px">any tier do not do so </text>
	<text transform="matrix(1 0 0 1 155.0105 104.5118)" font-family="Arial" font-size="7px">redundantly.</text>
	<rect x="155" y="152" fill="none" width="80" height="8.4"/>
	<text transform="matrix(1 0 0 1 155 159.2014)" font-family="Arial" font-variant="small-caps" font-weight="bold" font-size="10px">State</text>
	<rect x="155" y="167.5" fill="none" width="80" height="25.3"/>
	<text transform="matrix(1 0 0 1 155.0107 172.5117)" font-family="Arial" font-size="7px">A state variable and </text>
	<text transform="matrix(1 0 0 1 155.0107 180.9117)" font-family="Arial" font-size="7px">methods to change and </text>
	<text transform="matrix(1 0 0 1 155.0107 189.3117)" font-family="Arial" font-size="7px">recall it.</text>
	<rect x="45" y="452" fill="none" width="80" height="8.4"/>
	<text transform="matrix(1 0 0 1 45.0002 459.2014)" font-family="Arial" font-variant="small-caps" font-weight="bold" font-size="10px">Shortcut</text>
	<rect x="45" y="467.5" fill="none" width="80" height="25.3"/>
	<text transform="matrix(1 0 0 1 45.0002 472.5117)" font-family="Arial" font-size="7px">A shortcut method to </text>
	<text transform="matrix(1 0 0 1 45.0002 480.9117)" font-family="Arial" font-size="7px">directly access elements </text>
	<text transform="matrix(1 0 0 1 45.0002 489.3117)" font-family="Arial" font-size="7px">by tset_type and index.</text>
	<rect x="45" y="602" fill="none" width="80" height="8.4"/>
	<text transform="matrix(1 0 0 1 45.0002 609.2014)" font-family="Arial" font-variant="small-caps" font-weight="bold" font-size="10px">Shortcut</text>
	<rect x="45" y="617.5" fill="none" width="80" height="25.3"/>
	<text transform="matrix(1 0 0 1 45.0002 622.5117)" font-family="Arial" font-size="7px">A shortcut method to </text>
	<text transform="matrix(1 0 0 1 45.0002 630.9117)" font-family="Arial" font-size="7px">directly access elements </text>
	<text transform="matrix(1 0 0 1 45.0002 639.3117)" font-family="Arial" font-size="7px">by 3 integer address.</text>
	<rect x="45" y="649.8" fill="none" width="80" height="8.4"/>
	<text transform="matrix(1 0 0 1 45.0002 656.9514)" font-family="Arial" font-variant="small-caps" font-weight="bold" font-size="10px">Structure</text>
	<rect x="45" y="665.3" fill="none" width="80" height="25.3"/>
	<text transform="matrix(1 0 0 1 45.0002 670.2617)" font-family="Arial" font-size="7px">A topo_structure to </text>
	<text transform="matrix(1 0 0 1 45.0002 678.6617)" font-family="Arial" font-size="7px">generate a matching </text>
	<text transform="matrix(1 0 0 1 45.0002 687.0617)" font-family="Arial" font-size="7px">topology of any type.</text>
	<rect x="375" y="152" fill="none" width="80" height="8.4"/>
	<text transform="matrix(1 0 0 1 375.0001 159.2014)" font-family="Arial" font-variant="small-caps" font-weight="bold" font-size="10px">State</text>
	<rect x="375" y="167.5" fill="none" width="80" height="25.3"/>
	<text transform="matrix(1 0 0 1 375 172.5117)" font-family="Arial" font-size="7px">A state variable and </text>
	<text transform="matrix(1 0 0 1 375 180.9117)" font-family="Arial" font-size="7px">methods to change and </text>
	<text transform="matrix(1 0 0 1 375 189.3117)" font-family="Arial" font-size="7px">recall it.</text>
	<rect x="265" y="152" fill="none" width="80" height="8.4"/>
	<text transform="matrix(1 0 0 1 265.0001 159.2014)" font-family="Arial" font-variant="small-caps" font-weight="bold" font-size="10px">Address</text>
	<rect x="265" y="167.5" fill="none" width="80" height="20"/>
	<text transform="matrix(1 0 0 1 265 172.5117)" font-family="Arial" font-size="7px">A 3 integer address</text>
	<text transform="matrix(1 0 0 1 265 180.9117)" font-family="Arial" font-size="7px">(Grid, Toposet, Index)</text>
	<rect x="265" y="193.8" fill="none" width="80" height="8.4"/>
	<text transform="matrix(1 0 0 1 265.0001 200.9514)" font-family="Arial" font-variant="small-caps" font-weight="bold" font-size="10px">Back Reference</text>
	<rect x="265" y="209.3" fill="none" width="80" height="25.5"/>
	<text transform="matrix(1 0 0 1 265 214.2617)" font-family="Arial" font-size="7px">A list of shared pointers </text>
	<text transform="matrix(1 0 0 1 265 222.6617)" font-family="Arial" font-size="7px">to reference lists that </text>
	<text transform="matrix(1 0 0 1 265 231.0617)" font-family="Arial" font-size="7px">reference this element.</text>
	<rect x="155" y="199.5" fill="none" width="80" height="8.4"/>
	<text transform="matrix(1 0 0 1 155 206.7014)" font-family="Arial" font-variant="small-caps" font-weight="bold" font-size="10px">GTIS</text>
	<rect x="155" y="215" fill="none" width="80" height="10.1"/>
	<text transform="matrix(1 0 0 1 155.0107 220.0117)" font-family="Arial" font-size="7px">A list of GTIS linksets.</text>
	<rect x="265" y="42" fill="none" width="80" height="8.4"/>
	<text transform="matrix(1 0 0 1 265.0001 49.201)" font-family="Arial" font-variant="small-caps" font-weight="bold" font-size="10px">Reference</text>
	<rect x="265" y="57.5" fill="none" width="80" height="34.7"/>
	<text transform="matrix(1 0 0 1 265 62.5118)" font-family="Arial" font-size="7px">A list of shared pointers </text>
	<text transform="matrix(1 0 0 1 265 70.9118)" font-family="Arial" font-size="7px">to reference lists, so that </text>
	<text transform="matrix(1 0 0 1 265 79.3118)" font-family="Arial" font-size="7px">they can be created or </text>
	<text transform="matrix(1 0 0 1 265 87.7118)" font-family="Arial" font-size="7px">managed at any tier.</text>
	<text transform="matrix(1 0 0 1 150 253)" font-family="Arial" font-variant="small-caps" font-weight="bold" font-size="8px">managed by </text>
	<text transform="matrix(1 0 0 1 265 267.7236)" font-family="Arial" font-size="9px">std::vector of</text>
	<text transform="matrix(1 0 0 1 265 278.5236)" font-family="Arial" font-size="9px">std::shared_ptr</text>
	<text transform="matrix(1 0 0 1 45 417.7236)" font-family="Arial" font-size="9px">std::vector of</text>
	<text transform="matrix(1 0 0 1 45 428.5236)" font-family="Arial" font-size="9px">std::unique_ptr</text>
	<text transform="matrix(1 0 0 1 45 567.7233)" font-family="Arial" font-size="9px">std::vector of</text>
	<text transform="matrix(1 0 0 1 45 578.5233)" font-family="Arial" font-size="9px">std::unique_ptr</text>
	<text transform="matrix(1 0 0 1 155 267.7238)" font-family="Arial" font-size="9px">std::vector</text>
	<text transform="matrix(1 0 0 1 375 267.7236)" font-family="Arial" font-size="9px">std::vector</text>
	<text transform="matrix(1 0 0 1 260 253)" font-family="Arial" font-variant="small-caps" font-weight="bold" font-size="8px">managed by </text>
	<text transform="matrix(1 0 0 1 40 403)" font-family="Arial" font-variant="small-caps" font-weight="bold" font-size="8px">managed by </text>
	<text transform="matrix(1 0 0 1 40 553)" font-family="Arial" font-variant="small-caps" font-weight="bold" font-size="8px">managed by </text>
	<text transform="matrix(1 0 0 1 370 253)" font-family="Arial" font-variant="small-caps" font-weight="bold" font-size="8px">managed by </text>
</g>
</svg>
