<?xml version="1.0" encoding="UTF-8"?>
<!-- Generator: Adobe Illustrator 21.1.0, SVG Export Plug-In . SVG Version: 6.00 Build 0)  -->
<svg enable-background="new 0 0 465 695" version="1.1" viewBox="0 0 465 695" xml:space="preserve" xmlns="http://www.w3.org/2000/svg" xmlns:cc="http://creativecommons.org/ns#" xmlns:dc="http://purl.org/dc/elements/1.1/" xmlns:rdf="http://www.w3.org/1999/02/22-rdf-syntax-ns#"><metadata><rdf:RDF><cc:Work rdf:about=""><dc:format>image/svg+xml</dc:format><dc:type rdf:resource="http://purl.org/dc/dcmitype/StillImage"/><dc:title/></cc:Work></rdf:RDF></metadata><g id="Underlay"><polygon points="465 695 0 695 0 35 35 35 35 0 465 0" fill="#B3B3B3" opacity=".2"/></g><g id="_x30_"><g id="LWPOLYLINE_31_"><polygon points="195 595 245 585 245 545 145 545 145 585" fill="#B3B3B3"/></g><g id="LWPOLYLINE_32_"><polygon points="305 595 355 585 355 545 255 545 255 585" fill="#B3B3B3"/></g><g id="LWPOLYLINE_33_"><polygon points="415 595 465 585 465 545 365 545 365 585" fill="#B3B3B3"/></g><g id="LWPOLYLINE_28_"><polygon points="305 445 355 435 355 395 255 395 255 435" fill="#B3B3B3"/></g><g id="LWPOLYLINE_29_"><polygon points="415 445 465 435 465 395 365 395 365 435" fill="#B3B3B3"/></g><g id="LWPOLYLINE_27_"><polygon points="195 445 245 435 245 395 145 395 145 435" fill="#B3B3B3"/></g><g id="LWPOLYLINE_64_"><polygon points="195 295 245 285 245 257 145 257 145 285" fill="#FFB866"/></g><g id="LWPOLYLINE_42_"><rect x="145" y="35" width="100" height="100" fill="#FFDBB3"/></g><g id="LWPOLYLINE_35_"><rect x="145" y="595" width="100" height="100" fill="#D9D9D9"/></g><g id="LWPOLYLINE_36_"><rect x="255" y="595" width="100" height="100" fill="#D9D9D9"/></g><g id="LWPOLYLINE_37_"><rect x="365" y="595" width="100" height="100" fill="#D9D9D9"/></g><g id="LWPOLYLINE_17_"><rect x="145" y="445" width="100" height="100" fill="#D9D9D9"/></g><g id="LWPOLYLINE_16_"><rect x="255" y="445" width="100" height="100" fill="#D9D9D9"/></g><g id="LWPOLYLINE_15_"><rect x="365" y="445" width="100" height="100" fill="#D9D9D9"/></g><g id="LWPOLYLINE_20_"><rect x="145" y="295" width="100" height="100" fill="#D9D9D9"/></g><g id="LWPOLYLINE_19_"><rect x="255" y="295" width="100" height="100" fill="#D9D9D9"/></g><g id="LWPOLYLINE_18_"><rect x="365" y="295" width="100" height="100" fill="#D9D9D9"/></g><g id="LWPOLYLINE"><rect y="595" width="25" height="100" fill="#FFB866"/></g><g id="LWPOLYLINE_1_"><rect y="145" width="25" height="140" fill="#FFB866"/></g><g id="LWPOLYLINE_2_"><rect x="145" width="100" height="25" fill="#FFB866"/></g><g id="LWPOLYLINE_3_"><rect x="255" width="100" height="25" fill="#FFB866"/></g><g id="LWPOLYLINE_4_"><rect x="365" width="100" height="25" fill="#FFB866"/></g><g id="LWPOLYLINE_5_"><rect x="35" width="100" height="25" fill="#d70"/></g><g id="LWPOLYLINE_6_"><rect y="35" width="25" height="100" fill="#d70"/></g><g id="LWPOLYLINE_39_"><rect y="295" width="25" height="140" fill="#FFB866"/></g><g id="LWPOLYLINE_40_"><rect y="445" width="25" height="140" fill="#FFB866"/></g><g id="LWPOLYLINE_26_"><polygon points="85 295 135 285 135 245 35 245 35 285" fill="#B3B3B3"/></g><g id="LWPOLYLINE_8_"><rect x="255" y="35" width="100" height="100" fill="#FFDBB3"/></g><g id="LWPOLYLINE_9_"><rect x="365" y="35" width="100" height="100" fill="#FFDBB3"/></g><g id="LWPOLYLINE_13_"><rect x="145" y="145" width="100" height="100" fill="#FFDBB3"/></g><g id="LWPOLYLINE_21_"><rect x="35" y="445" width="100" height="100" fill="#FFDBB3"/></g><g id="LWPOLYLINE_22_"><rect x="35" y="295" width="100" height="100" fill="#FFDBB3"/></g><g id="LWPOLYLINE_12_"><rect x="255" y="145" width="100" height="100" fill="#FFDBB3"/></g><g id="LWPOLYLINE_11_"><rect x="365" y="145" width="100" height="100" fill="#FFDBB3"/></g><g id="LWPOLYLINE_10_"><rect x="35" y="35" width="100" height="100" fill="#D9D9D9"/></g><g id="LWPOLYLINE_14_"><rect x="35" y="145" width="100" height="100" fill="#D9D9D9"/></g><g id="LWPOLYLINE_38_"><rect x="35" y="595" width="100" height="100" fill="#FFDBB3"/></g><g id="LWPOLYLINE_41_"><rect x="150" y="52.5" width="90" height="57.3" fill="#FFE9CF"/></g><g id="LWPOLYLINE_43_"><rect x="150" y="40" width="90" height="12.5" fill="#FFB866"/></g><g id="LWPOLYLINE_47_"><rect x="150" y="162.5" width="90" height="30.3" fill="#FFE9CF"/></g><g id="LWPOLYLINE_46_"><rect x="150" y="150" width="90" height="12.5" fill="#FFB866"/></g><g id="LWPOLYLINE_57_"><rect x="40" y="462.5" width="90" height="30.3" fill="#FFE9CF"/></g><g id="LWPOLYLINE_56_"><rect x="40" y="450" width="90" height="12.5" fill="#FFB866"/></g><g id="LWPOLYLINE_59_"><rect x="40" y="612.5" width="90" height="30.3" fill="#FFE9CF"/></g><g id="LWPOLYLINE_58_"><rect x="40" y="600" width="90" height="12.5" fill="#FFB866"/></g><g id="LWPOLYLINE_61_"><rect x="40" y="660.3" width="90" height="30.3" fill="#FFE9CF"/></g><g id="LWPOLYLINE_60_"><rect x="40" y="647.8" width="90" height="12.5" fill="#FFB866"/></g><g id="LWPOLYLINE_55_"><rect x="370" y="162.5" width="90" height="30.3" fill="#FFE9CF"/></g><g id="LWPOLYLINE_54_"><rect x="370" y="150" width="90" height="12.5" fill="#FFB866"/></g><g id="LWPOLYLINE_51_"><rect x="260" y="162.5" width="90" height="25" fill="#FFE9CF"/></g><g id="LWPOLYLINE_50_"><rect x="260" y="150" width="90" height="12.5" fill="#FFB866"/></g><g id="LWPOLYLINE_53_"><rect x="260" y="204.3" width="90" height="30.5" fill="#FFE9CF"/></g><g id="LWPOLYLINE_52_"><rect x="260" y="191.8" width="90" height="12.5" fill="#FFB866"/></g><g id="LWPOLYLINE_49_"><rect x="150" y="210" width="90" height="15.1" fill="#FFE9CF"/></g><g id="LWPOLYLINE_48_"><rect x="150" y="197.5" width="90" height="12.5" fill="#FFB866"/></g><g id="LWPOLYLINE_45_"><rect x="260" y="52.5" width="90" height="39.7" fill="#FFE9CF"/></g><g id="LWPOLYLINE_7_"><rect x="260" y="40" width="90" height="12.5" fill="#FFB866"/></g><g id="LWPOLYLINE_44_"><rect x="145" y="245" width="100" height="12" fill="#d70"/></g><g id="LWPOLYLINE_65_"><polygon points="85 445 135 435 135 407 35 407 35 435" fill="#FFB866"/></g><g id="LWPOLYLINE_63_"><rect x="35" y="395" width="100" height="12" fill="#d70"/></g><g id="LWPOLYLINE_25_"><polygon points="85 595 135 585 135 557 35 557 35 585" fill="#FFB866"/></g><g id="LWPOLYLINE_23_"><rect x="35" y="545" width="100" height="12" fill="#d70"/></g><g id="LWPOLYLINE_30_"><polygon points="305 295 355 285 355 257 255 257 255 285" fill="#FFB866"/></g><g id="LWPOLYLINE_24_"><rect x="255" y="245" width="100" height="12" fill="#d70"/></g><g id="LWPOLYLINE_62_"><polygon points="415 295 465 285 465 257 365 257 365 285" fill="#FFB866"/></g><g id="LWPOLYLINE_34_"><rect x="365" y="245" width="100" height="12" fill="#d70"/></g></g><g id="Text"><g id="MTEXT"><text transform="matrix(-1.837e-16 1 -1 -1.837e-16 8.9648 616.95)" font-family="Arial" font-size="12px" font-variant="small-caps" font-weight="bold">topology</text>
</g><g id="MTEXT_1_"><text transform="matrix(-1.837e-16 1 -1 -1.837e-16 8.9648 191.15)" font-family="Arial" font-size="12px" font-variant="small-caps" font-weight="bold">element</text>
</g><g id="MTEXT_2_"><text transform="translate(169.98 15.035)" font-family="Arial" font-size="12px" font-variant="small-caps" font-weight="bold">tt_logic</text>
</g><g id="MTEXT_3_"><text transform="translate(264.7 15.035)" font-family="Arial" font-size="12px" font-variant="small-caps" font-weight="bold">tt_reference</text>
</g><g id="MTEXT_4_"><text transform="translate(379.84 15.035)" font-family="Arial" font-size="12px" font-variant="small-caps" font-weight="bold">tt_solution</text>
</g><g id="MTEXT_5_"><text transform="translate(58.073 15.035)" font-family="Arial" font-size="12px" font-variant="small-caps" font-weight="bold">all types</text>
</g><g id="MTEXT_6_"><text transform="matrix(-1.837e-16 1 -1 -1.837e-16 8.9648 41.453)" font-family="Arial" font-size="12px" font-variant="small-caps" font-weight="bold">all containers</text>
</g><g id="MTEXT_16_"><text transform="matrix(-1.837e-16 1 -1 -1.837e-16 8.9648 341.16)" font-family="Arial" font-size="12px" font-variant="small-caps" font-weight="bold">toposet</text>
</g><g id="MTEXT_17_"><text transform="matrix(-1.837e-16 1 -1 -1.837e-16 8.9648 502.36)" font-family="Arial" font-size="12px" font-variant="small-caps" font-weight="bold">grid</text>
</g><rect x="155" y="42" width="80" height="8.4" fill="none"/><text transform="translate(155 49.201)" font-family="Arial" font-size="10px" font-variant="small-caps" font-weight="bold">Logic Counter </text>
<rect x="155" y="57.5" width="80" height="50.5" fill="none"/><g font-family="Arial" font-size="7px"><text transform="translate(155.01 62.512)">A logic counter variable </text>
<text transform="translate(155.01 70.912)">and methods to ensure </text>
<text transform="translate(155.01 79.312)">that any logic module </text>
<text transform="translate(155.01 87.712)">checks queued to run at </text>
<text transform="translate(155.01 96.112)">any tier do not do so </text>
<text transform="translate(155.01 104.51)">redundantly.</text>
</g><rect x="155" y="152" width="80" height="8.4" fill="none"/><text transform="translate(155 159.2)" font-family="Arial" font-size="10px" font-variant="small-caps" font-weight="bold">State</text>
<rect x="155" y="167.5" width="80" height="25.3" fill="none"/><g font-family="Arial" font-size="7px"><text transform="translate(155.01 172.51)">A state variable and </text>
<text transform="translate(155.01 180.91)">methods to change and </text>
<text transform="translate(155.01 189.31)">recall it.</text>
</g><rect x="45" y="452" width="80" height="8.4" fill="none"/><text transform="translate(45 459.2)" font-family="Arial" font-size="10px" font-variant="small-caps" font-weight="bold">Shortcut</text>
<rect x="45" y="467.5" width="80" height="25.3" fill="none"/><g font-family="Arial" font-size="7px"><text transform="translate(45 472.51)">A shortcut method to </text>
<text transform="translate(45 480.91)">directly access elements </text>
<text transform="translate(45 489.31)">by tset_type and index.</text>
</g><rect x="45" y="602" width="80" height="8.4" fill="none"/><text transform="translate(45 609.2)" font-family="Arial" font-size="10px" font-variant="small-caps" font-weight="bold">Shortcut</text>
<rect x="45" y="617.5" width="80" height="25.3" fill="none"/><g font-family="Arial" font-size="7px"><text transform="translate(45 622.51)">A shortcut method to </text>
<text transform="translate(45 630.91)">directly access elements </text>
<text transform="translate(45 639.31)">by 3 integer address.</text>
</g><rect x="45" y="649.8" width="80" height="8.4" fill="none"/><text transform="translate(45 656.95)" font-family="Arial" font-size="10px" font-variant="small-caps" font-weight="bold">Structure</text>
<rect x="45" y="665.3" width="80" height="25.3" fill="none"/><g font-family="Arial" font-size="7px"><text transform="translate(45 670.26)">A topo_structure to </text>
<text transform="translate(45 678.66)">generate a matching </text>
<text transform="translate(45 687.06)">topology of any type.</text>
</g><rect x="375" y="152" width="80" height="8.4" fill="none"/><text transform="translate(375 159.2)" font-family="Arial" font-size="10px" font-variant="small-caps" font-weight="bold">State</text>
<rect x="375" y="167.5" width="80" height="25.3" fill="none"/><g font-family="Arial" font-size="7px"><text transform="translate(375 172.51)">A state variable and </text>
<text transform="translate(375 180.91)">methods to change and </text>
<text transform="translate(375 189.31)">recall it.</text>
</g><rect x="265" y="152" width="80" height="8.4" fill="none"/><text transform="translate(265 159.2)" font-family="Arial" font-size="10px" font-variant="small-caps" font-weight="bold">Address</text>
<rect x="265" y="167.5" width="80" height="20" fill="none"/><text transform="translate(265 172.51)" font-family="Arial" font-size="7px">A 3 integer address</text>
<text transform="translate(265 180.91)" font-family="Arial" font-size="7px">(Grid, Toposet, Index)</text>
<rect x="265" y="193.8" width="80" height="8.4" fill="none"/><text transform="translate(265 200.95)" font-family="Arial" font-size="10px" font-variant="small-caps" font-weight="bold">Back Reference</text>
<rect x="265" y="209.3" width="80" height="25.5" fill="none"/><g font-family="Arial" font-size="7px"><text transform="translate(265 214.26)">A list of shared pointers </text>
<text transform="translate(265 222.66)">to reference lists that </text>
<text transform="translate(265 231.06)">reference this element.</text>
</g><rect x="155" y="199.5" width="80" height="8.4" fill="none"/><text transform="translate(155 206.7)" font-family="Arial" font-size="10px" font-variant="small-caps" font-weight="bold">GTIS</text>
<rect x="155" y="215" width="80" height="10.1" fill="none"/><text transform="translate(155.01 220.01)" font-family="Arial" font-size="7px">A list of GTIS linksets.</text>
<rect x="265" y="42" width="80" height="8.4" fill="none"/><text transform="translate(265 49.201)" font-family="Arial" font-size="10px" font-variant="small-caps" font-weight="bold">Reference</text>
<rect x="265" y="57.5" width="80" height="34.7" fill="none"/><g font-family="Arial"><g font-size="7px"><text transform="translate(265 62.512)">A list of shared pointers </text>
<text transform="translate(265 70.912)">to reference lists, so that </text>
<text transform="translate(265 79.312)">they can be created or </text>
<text transform="translate(265 87.712)">managed at any tier.</text>
</g><text transform="translate(150 253)" font-size="8px" font-variant="small-caps" font-weight="bold">managed by </text><g font-size="9px">
<text transform="translate(265 267.72)">std::vector of</text>
<text transform="translate(265 278.52)">std::shared_ptr</text>
<text transform="translate(45 417.72)">std::vector of</text>
<text transform="translate(45 428.52)">std::unique_ptr</text>
<text transform="translate(45 567.72)">std::vector</text>
<text transform="translate(155 267.72)">std::vector</text>
<text transform="translate(375 267.72)">std::vector</text></g><g font-size="8px" font-variant="small-caps" font-weight="bold">
<text transform="translate(260 253)">managed by </text>
<text transform="translate(40 403)">managed by </text>
<text transform="translate(40 553)">managed by </text>
<text transform="translate(370 253)">managed by </text>
</g></g></g><g fill="none" stroke="#f00" stroke-linecap="round"><g stroke-opacity=".58824"><path d="m308.99 260.44 8.9268 8.9268" stroke-width="1px"/><path d="m317.91 260.44-8.9268 8.9268" stroke-width="1px"/><path d="m265.04 272.39 59.472 7.5809"/><path d="m324.51 272.39-59.472 7.5809"/></g><g stroke-opacity=".58824"><path d="m88.571 410.99 8.9268 8.9268" stroke-width="1px"/><path d="m97.498 410.99-8.9268 8.9268" stroke-width="1px"/><path d="m44.623 422.94 59.472 7.5809"/><path d="m104.1 422.94-59.472 7.5809"/></g></g></svg>
